<?xml version="1.0" encoding="utf-8"?>
<!-- Generator: Adobe Illustrator 20.0.0, SVG Export Plug-In . SVG Version: 6.00 Build 0)  -->
<svg version="1.1" id="Layer_2" xmlns="http://www.w3.org/2000/svg" xmlns:xlink="http://www.w3.org/1999/xlink" x="0px" y="0px"
	 viewBox="0 0 742.8 958.1" style="enable-background:new 0 0 742.8 958.1;" xml:space="preserve">
<path d="M736.9,629.8c-6.6,1.4-13.1,1.5-19.8,0.1c-13.9-2.9-27.9-4.4-42.1-5c-7.8-0.3-16.1,0.7-23.3-1.5c-12.2-3.7-24-9.1-33.2-18.7
	c-8.1-8.4-15.6-17.3-24.8-24.7c-0.6-0.5-1.4-1.1-0.8-2.1c35.9-7,71.9-7.6,108.3,0.7c-1.2-2.7-3-3-4.4-3.7
	c-11.9-6.2-24.3-11-36.8-15.4c-9.9-3.5-19.8-5.3-30.3-4.5c-17,1.2-33.7,4.5-50.3,7.8c-6.3,1.2-11.5,1-17-2.7
	c-3.5-2.4-7.8-3.6-11.9-5.1c-18.5-6.8-37.6-11.3-56.7-16.2c-3.1-0.8-6.1-1.8-8.4-4.1c-13.1-13-26.7-25.7-37.2-41
	c-25.5-37-42.5-69.9-75.4-100.6c-6.4-6-10.5-11.2-15.5-18.7c-4.9-7.2-1.7-18.2-3.9-26.2c-1-3.7-3.3-22.7-4.1-28.6
	c-0.1-0.4-0.1-0.9-0.1-1.3c1.7-2.9,3.1-7.4,3.8-12.6c0.6-4.4-1.5-8.5-2-11.6c1.9-2.1,3.2-6.2,3.2-10.9c0-2.5-0.4-4.8-1-6.8
	c3-0.6,6.8-7.2,8.9-15.8c0.9-3.9,1.4-7.6,1.4-10.6c2.4-4.6,5.3-8.8,8.5-11.9c8.1-7.6,2.4-27.7,7.4-37.6c2.1-4.1,2.5-6.3,6.3-4.3
	c14,7.2,28.5,12.9,44.8,11.4c6.7-0.6,13.2,0.2,19.8,1.5c6.7,1.3,13.4,2.2,20.3,2.6c15.8,0.9,30.5-4.9,45.5-8.1
	c4.1-0.9,8.8-1.8,12.5-4.7c5.8-4.6,9.7-10.3,12.1-17.3c4.5-13.3,13.5-23.5,22.8-33.5c2.9-3.1,7-5.1,10.6-7.5c0.3-0.2,0.7-0.4,1-0.6
	c0.9-1.1,2.2-2,3.8-2.7c0.3-0.1,0.6-0.3,0.9-0.4c2.8-2.4,5.3-5,7.8-7.7c0.1-1.7,1.1-2.8,2.4-3.4c-0.8-2.2,0.2-4,1.5-5.5
	c2.1-2.2,2.5,1,3.8,1.6c2,0.9,4.2,2.5,6.1,1.2c4-2.7,9-4.4,11-9.6c1.2-3.3,3-6.4,4-9.7c2.5-7.9,9.4-10.8,16.1-12.8
	c5.8-1.7,11.3-3.9,16.9-6c3.8-1.4,6.8-4.1,9.2-7.4c1.1-1.6,2.6-3.3,1.1-5.4c-1.6-2.2-3.7-1.8-5.8-0.8c-6.4,2.9-13.2,4.5-20.2,5.2
	c-3.1,0.3-6.2,1.2-9.2,2.1c-7,2-7.9,1.8-10.7-4.8c-1.4-3.3-3.1-5.5-7.1-6c-3.9-0.4-7.3-6.8-6.2-10.6c1.8-6.2,5.1-11.5,9.4-16.3
	c4.3-4.7,8.4-9.6,8.5-16.5c0-2.7,1-5.9-2.6-7.3c-3.7-1.4-6.2,0.7-7.9,3.5c-3,4.8-6.8,8.7-11.4,11.7c-5.6,3.8-9.3,8.7-11.5,15.2
	c-1.9,5.8-5.8,10.4-11.5,13.2c-3.4,1.7-5.9,4.4-7.4,7.9c-1.6,3.7-4.2,5.6-7.8,7.2c-5.6,2.6-11.3,5.7-14.3,11.3
	c-5.6,10.5-13.6,18.7-22.4,26.2c-8.9,7.6-19.7,12.2-29.8,18c-3,1.7-7.5,1.4-8.1,6.3c0,0.3-1.1,0.7-1.7,0.7c-4.9-0.3-8.4,2.7-12.2,5
	c-2.5,1.5-4.5,1.5-6.9,0.3c-7.2-3.4-14.9-4.8-22.8-5.6c-8.4-0.8-17.2-0.9-24.3-6.2c-6.6-4.9-13.4-9.3-20.8-12.9
	c-12.8-6.1-26.2-10.5-40.5-6.9c-11.8,2.9-23.8,2-35.7,2c3.5-11.3,7.2-20.6,9-24.5c4.4-9.4-3.8-8.2-3.8-8.2s-11.7,4.6-22.6,4.3
	c0.4-0.9,0.9-1.7,1.5-2.5c6.4-8.7,2.7-19.4,7.6-28c-2.1-6.2,0.7-11.6,2.5-17.3c2.5-8.1,2.5-15.8-5-21.8c-4.7-3.7-8.5-8.4-13.9-11.2
	c-2.4-1.2-3.6-5.6-7.3-1.9c-0.4,0.4-2.6-0.4-3.7-1.1c-2.6-1.9-5.6-2.3-8.6-1.9c-4.9,0.6-9.8-0.3-15,0.9c-4.7,1-8.2,2.7-11.8,5.3
	c-2.2,1.5-4.4,3-6.7,4.4c-6.9,4.2-10.7,10.2-10.9,18.4c-0.3,8.5-1.3,16.9-0.6,25.6c0.9,12.1,2.4,24.5,0.7,36.8
	c-0.6,4.2-0.8,6.6-1.7,8.3c-17.2,6.8-29.1,4-30.4,4.5c-4.3,1.6-7,8.2-2.9,10.7c13.1,8,16.1,22.6,16.1,22.6c-1.3,0.9-3.2,2-5.8,3.4
	c-2,1.1-4.2,2.1-6.2,3.2c-14,7-28.3,13.6-39.4,25.2c-9.9,10.4-16.7,22.2-14,37.3c2,10.9,0.8,20.9-6.5,29.8
	c-3.6,4.4-5.9,9.7-6.8,15.4c-1.2,7.9-1.6,15.9-4.7,23.6c-1.8,4.6-4.1,7-9.2,6.8c-6-0.3-12.2-1.2-17.7,1.7c-9.1,4.8-17.4,2-25.8-1.5
	c-6-2.5-9.5-8.3-14.7-11.8c-2.1-1.4-2.9-2.8-3.2-5.1c-1.1-8.7-4.2-16.8-9.1-24.1c-2.2-3.3-5.8-7.4-9.2-4.5
	c-5.6,4.8-10.8,3.2-16.5,1.9c-0.8-0.2-1.7,0.1-2.5,0.3c-5.2,1.7-10.5,3.2-15.6,5.2c-4.1,1.7-5.6,5.4-4.3,9.5
	c2,6.1,0.1,13.5,5.9,18.4c0.5,0.4,0.6,1.5,0.7,2.4c0.1,3,1.7,5.2,3,7.8c2.5,5.2,7.9,8.4,10.1,13.5c3.9,9.2,10.5,14.6,19.7,17.6
	c14.2,4.6,27.1,11.6,39.5,20c11.8,8.1,24.7,14.5,37.8,20.3c3.2,1.4,6.7,3,9.9,0.2c3.7-3.3,8-3.7,12.6-3.4
	c12.2,0.7,21.6-3.7,27.9-14.6c2.7-4.8,5.4-9.5,7.4-14.7c1.4-3.7,2.7-7.4,6.3-11.3c1.1,7.1,1.4,13.4,2.9,19.6
	c1.6,6.5,2,13.3,2.3,20.1c0.4,8.7,3.8,17,1.7,26.2c-1.1,4.9-2.4,8.5-6.3,11.6c-10.5,8.5-21.9,16-29.5,27.5
	c-4.3,6.4-9.2,12.2-14.8,17.5c-3,2.8-5.4,6.2-5.8,10.3c-0.7,7.1-2,14.1-1.1,21.3c1.2,9.4,2.7,18.5-2.4,28
	c-17.9,33.6-24,70.3-26.4,107.8c-0.5,7.9,0.2,16.1-2.1,23.8c-2.9,9.5-1.2,18.3,3.3,27c2.7,5.3,7.1,9.8,7.9,16
	c0.8,7.3,1.6,14.6,2.1,21.9c0.7,9.9,2.5,19.8,4.5,29.4c2.4,11.8,7.2,23.3,12.8,34.1c11.7,22.5,20.4,45.9,25.1,70.8
	c0.9,4.9,1.5,11.2-0.9,14.2c-7.4,9.2-13.8,19.3-22.8,27.1c-2.7,2.4-5.7,4-9.5,3.8c-2.2-0.1-4.9-0.2-6.1,1.6
	c-2.1,3.1-5.2,3.3-8.1,4.3c-7,2.2-14.1,3.9-21.4,5.2c-2.3,0.4-4.5,1-5.3,3.8c-1.7,5.8,0.1,10.9,5.6,13.3c23.2,10.1,47,13.1,71.5,4.7
	c6.5-2.2,13-4.2,19.6-6c3.8-1.1,7.5-0.9,11.1,1.2c4.7,2.7,9.8,3.4,14.9,1.8c6-1.9,12-4,18-6c2.3-0.8,3.6-2,3.7-4.7
	c0.5-14.5-0.9-28.7-6.5-42.1c-3.9-9.3-8.7-18.2-12-27.8c-5.3-15.4-9.6-30.9-11.5-46.9c-2.1-18.2-2.1-36.6-2.1-54.9
	c0-4.4-0.4-8.8-2.2-12.7c-6.8-15-12-30.7-20.4-45c-3-5.1-4.5-10.1-3.1-16.1c0.8-3.3,0.8-7.1,0.1-10.4c-1.3-5.8,1.7-9.6,4.8-13.5
	c1.8-2.3,3.4-1.9,4.1,1c2.2,9.7,4.6,19.4,6.1,29.3c4.2,27.6,10.5,54.5,25.1,78.9c7.8,13,18,24.4,25.7,37.5
	c5.3,9.1,12.7,16.2,21.3,22.2c10.1,7.1,21.5,7,31.2-0.6c3.5-2.7,3.2-4.6-1-6.3c-4.9-2-10.1-3.4-14.8-6c-3-1.7-3.2-3.5-1-5.9
	c3-3.2,6-6.2,9.6-8.7c13.6-9.9,29.2-10.1,45-9.4c1.8,0.1,3.1,1.2,4.2,2.4c8.8,9.1,19.8,15.1,30.9,20.9c13.4,6.9,27,9.5,41.2,2.7
	c7.4-3.5,14.7-7.1,21.5-11.7c5.7-3.9,9.6-9.2,12.4-15.3c4.7-10.3,11.6-18.5,20.8-25c3.2-2.3,5.1-1.6,5.5,2c0.4,3.4,2.2,5.8,4.4,8.2
	c21,23.7,42,47.3,62.9,71.1c3.7,4.2,9.3,8.3,8.6,14.1c-1,9.8,4,18,6.3,26.6c2.5,9.3,4,18.7,6.2,28c2.4,10.4,4.3,21.1,12.2,29.1
	c6.6,6.6,10.6,14.6,13.3,23.2c2.7,8.5,7.6,15.3,14.2,20.8c5.8,4.8,11.3,10.6,19.6,11.3c8.8,0.8,17.2-0.6,25.3-4
	c3-1.2,4.4-3.6,4.6-6.6c0.8-13.7-1-27.1-8.2-39c-15.3-25.3-32.6-49.4-44.3-76.7c-2.9-6.7-7.3-12.7-9.4-19.8
	c-3.2-10.7-8.3-20.7-12.3-31.1c-2.5-6.5-5.2-13-7.2-19.7c-5.5-18.7-11.3-37.3-17.8-55.7c-2-5.8-3.7-12.1-9.1-16.3
	c-2-1.6-0.1-2.6,1.1-3.4c3.3-2.1,5.7-5,7.2-8.7c4-9.6,4-9.5,14.2-7.6c3,0.5,5.2,1.8,6.8,4.4c1.8,2.8,4.2,5.3,5.8,8.1
	c6.1,10.7,22.4,10.2,30,3.9c8.9-7.3,17.6-14.8,26.4-22.2c2.1-1.7,2.6-3,0.1-5c-27.1-21.9-51.1-47.2-77.7-69.7c-2.3-2-4.5-4.2-7.4-7
	c10.4-0.5,19.4-0.9,28.3-1.3c1.6-0.1,3,0.4,4.2,1.4c8.9,6.8,18.5,12.7,26.5,20.4c11.5,11,24.6,18.3,40,22.4c14.2,3.7,29,5,42.8,9.9
	c14.9,5.3,29.5,4.9,44.3-0.2c6.3-2.2,13.3-2.3,20-4.7C740.5,628.8,738.7,629.4,736.9,629.8z"/>
</svg>
