<?xml version="1.0" encoding="UTF-8" standalone="no"?>
<!-- Created with Inkscape (http://www.inkscape.org/) -->

<svg
   xmlns:dc="http://purl.org/dc/elements/1.1/"
   xmlns:cc="http://creativecommons.org/ns#"
   xmlns:rdf="http://www.w3.org/1999/02/22-rdf-syntax-ns#"
   xmlns:svg="http://www.w3.org/2000/svg"
   xmlns="http://www.w3.org/2000/svg"
   version="1.1"
   width="199"
   height="320"
   id="svg3004"
   xml:space="preserve"><metadata
     id="metadata3010"><rdf:RDF><cc:Work
         rdf:about=""><dc:format>image/svg+xml</dc:format><dc:type
           rdf:resource="http://purl.org/dc/dcmitype/StillImage" /><dc:title></dc:title></cc:Work></rdf:RDF></metadata><defs
     id="defs3008"><clipPath
       id="clipPath3018"><path
         d="m 0,283.46 283.46,0 L 283.46,0 0,0 0,283.46 z"
         id="path3020" /></clipPath></defs><g
     transform="matrix(1.25,0,0,-1.25,-79.428,334.88325)"
     id="g3012"
     style="fill:#000000"><g
       id="g3014"
       style="fill:#000000"><g
         clip-path="url(#clipPath3018)"
         id="g3016"
         style="fill:#000000"><g
           transform="translate(156.3164,222.1826)"
           id="g3022"
           style="fill:#000000"><path
             d="M 0,0 C -1.317,0.092 -2.692,-0.159 -2.758,0.75 -2.792,1.17 -1.506,1.629 -0.125,1.629 1.251,1.629 2.392,1.012 2.4,0.583 2.413,0.154 1.315,-0.095 0,0 m -13.917,0.187 c -1.321,0.092 -2.698,-0.157 -2.762,0.752 -0.026,0.418 1.256,0.879 2.633,0.879 1.38,0 2.521,-0.62 2.529,-1.048 0.013,-0.427 -1.088,-0.678 -2.4,-0.583 m -14.904,-19.918 c -3.769,1.029 -7.027,0.942 -7.902,-2.633 -0.665,0.712 -0.352,2.41 -1.128,3.01 -2.499,-0.133 -4.681,-0.583 -7.524,-0.377 0.54,0.502 0.54,2.13 0,2.632 -1.763,-0.115 -2.955,-0.802 -4.515,-1.128 0.639,3.01 -3.542,2.394 -5.265,1.883 -0.103,4.158 -4.762,3.76 -5.642,7.143 -2.314,0.184 -3.888,-0.378 -5.643,-0.751 0.414,3.724 0.69,7.585 3.385,9.03 -0.126,7.904 5.135,10.415 8.655,14.672 2.178,-0.15 4.836,-0.892 6.392,0.375 0.746,-0.89 -2.003,-1.492 -1.882,-3.007 1.483,-1.816 4.442,0.614 6.019,1.125 6.612,-7.18 11.114,-16.475 16.933,-24.454 -0.533,-1.45 0.188,-3.057 1.126,-4.888 -2.002,0.12 -1.757,-2.002 -3.009,-2.632 m 52.663,-53.796 c 0.172,1.587 1.84,1.677 2.637,2.637 -1.809,2.007 0.274,4.086 3.382,3.383 0.546,-1.209 0.358,-3.156 0.378,-4.892 0.784,-0.716 1.797,-1.209 3.01,-1.505 0.798,-6.346 1.205,-13.085 2.632,-18.81 1.604,-0.025 2.634,-0.63 4.515,-0.372 1.265,-6.17 -1.779,-10.234 -6.396,-11.667 -4.039,6.62 -8.177,13.146 -12.412,19.565 1.521,3.117 2.37,6.911 2.254,11.661 m 10.535,-56.05 c -0.048,1.08 0.21,2.465 -0.377,3.01 -1.827,2.43 -5.171,3.356 -7.147,5.646 0.47,6.56 -6.205,7.302 -10.913,7.52 1.531,1.484 2.14,3.88 3.765,5.27 0.215,2.323 -2.53,3.344 -1.878,4.887 1.05,-0.45 2.594,-0.415 4.134,-0.373 -0.7,4.099 -0.653,7.302 -0.751,12.408 3.622,-6.727 10.285,-10.881 9.783,-20.687 7.311,-4.223 10.922,-12.151 15.797,-18.809 1.238,0.142 1.658,1.098 2.632,1.505 -1.768,3.498 -4.072,6.453 -6.016,9.779 -0.043,1.994 1.595,1.942 2.256,3.765 0.866,2.38 0.017,5.655 0.755,8.274 0.401,1.429 2.019,2.523 2.632,4.138 0.472,1.235 0.279,3.328 0.75,4.892 1.225,4.036 3.508,6.136 2.638,11.282 1.34,0.659 3.146,0.865 3.759,2.258 0.351,8.258 -5.431,14.775 -6.397,22.57 -0.249,2.036 0.24,4.017 0,6.02 -0.682,5.758 -6.736,9.561 -9.03,13.544 2.509,8.725 -6.722,8.429 -6.014,16.554 -3.869,0.986 -9.768,3.057 -13.545,0.75 -3.314,2.706 -6.787,5.252 -11.657,6.393 1.311,4.472 -3.813,6.324 -0.378,10.161 -0.407,1.098 -1.796,1.218 -3.387,1.128 -0.021,1.773 1.586,1.921 2.255,3.01 0.262,5.73 0.892,10.603 0,16.55 -1.6,10.677 -8.001,17.274 -19.183,16.176 -3.224,-0.315 -8.712,-3.528 -10.534,-8.651 -0.626,-1.758 -0.562,-4.498 -1.132,-6.773 -0.947,-3.803 -1.993,-6.649 -1.5,-10.907 0.334,-2.907 3.284,-6.031 3.387,-7.902 0.077,-1.533 -1.754,-2.558 -1.887,-4.513 -0.171,-2.551 1.295,-3.374 1.887,-5.265 -3.254,0.047 -2.393,4.78 -5.27,4.137 -5.051,8.49 -10.517,16.565 -16.177,24.45 0.579,2.058 3.331,1.936 3.387,4.512 -1.393,1.248 -3.078,-0.413 -4.514,-0.372 1.676,2.471 1.831,6.168 0,8.652 -0.369,0.418 -2.17,1.291 -2.632,0.376 -1.3,2.715 -2.367,5.661 -6.775,5.266 -3.31,4.715 -6.217,9.831 -9.78,14.295 l 0,0.375 -3.76,0 c 2.986,-5.539 6.543,-10.511 10.157,-15.424 -2.731,-1.404 -4.191,-4.084 -4.14,-8.273 -9.58,-7.349 -21.4,-12.457 -26.706,-24.076 -1.28,-0.104 -3.051,0.289 -3.763,-0.378 -0.576,-4.814 -0.812,-9.972 -1.882,-14.294 l 0,-4.515 c 0.324,-0.425 0.834,-2.508 1.505,-3.383 4.783,-6.242 12.303,-12.305 18.807,-18.814 6.795,-6.792 15.794,-10.23 24.077,-13.162 1.886,-4.622 2.628,-7.752 3.386,-14.295 0.297,-2.547 2.265,-4.584 2.633,-7.152 0.862,-5.963 -2.851,-12.279 -1.127,-18.054 0.643,-2.161 3.297,-2.959 4.888,-4.515 -2.903,-1.986 -6.02,-3.76 -8.275,-6.393 -7.52,-1.295 -17.519,-7.451 -12.036,-15.804 -5.564,-2.71 -7.732,-8.819 -10.159,-14.671 -2.927,-1.209 -5.322,-2.951 -4.889,-7.521 -1.66,0.154 -2.908,-0.103 -3.763,-0.75 0.236,-4.678 4.348,-13.363 7.525,-15.804 2.508,-1.925 6.009,-1.723 9.405,-3.009 5.895,-2.23 11.82,-7.282 17.681,-7.903 1.548,-4.215 0.215,-4.836 -0.836,-7.978 -0.913,-2.736 -1.972,-6.908 -2.131,-9.657 1.423,-4.471 7.152,-5.084 12.035,-3.511 1.882,0.378 3.889,1.128 5.643,2.508 1.758,1.377 -1.235,6.081 -1.171,13 0.034,3.529 2.615,6.718 2.638,9.025 0.016,2.353 -2.561,3.897 -1.883,6.397 1.381,0.88 3.966,0.549 5.642,1.128 0.82,-4.068 4.33,-5.45 7.902,-6.774 -1.175,-5.257 -0.519,-6.556 0.669,-10.487 -0.095,-0.051 2.341,-2.561 2.254,-2.632 1.171,-0.588 2.115,-0.503 3.637,-0.503 2.422,0 3.387,1.004 2.508,5.141 1.42,3.962 2.35,8.692 4.472,12.246 2.482,-2.033 5.342,-3.684 7.902,-5.644 -0.565,-3.979 0.176,-5.604 2.633,-7.146 1.98,0.025 1.997,2.015 3.76,2.258 1.264,-3.016 6.174,-2.384 7.906,-4.926 5.526,-2.588 10.015,-7.678 16.215,-8.711 3.769,-0.625 7.07,0.472 10.077,2.744 2.049,1.547 5.774,5.144 5.681,5.247 1.671,2.843 3.202,5.827 4.136,9.408 l 0,7.519 c -3.686,15.123 -13.552,24.07 -22.196,34.237"
             id="path3024"
             style="fill:#000000;fill-opacity:1;fill-rule:nonzero;stroke:none" /></g></g></g></g></svg>