<?xml version="1.0" encoding="UTF-8" standalone="no"?>
<!-- Created with Inkscape (http://www.inkscape.org/) -->

<svg
   xmlns:dc="http://purl.org/dc/elements/1.1/"
   xmlns:cc="http://creativecommons.org/ns#"
   xmlns:rdf="http://www.w3.org/1999/02/22-rdf-syntax-ns#"
   xmlns:svg="http://www.w3.org/2000/svg"
   xmlns="http://www.w3.org/2000/svg"
   version="1.1"
   width="310"
   height="320"
   id="svg3004"
   xml:space="preserve"><metadata
     id="metadata3010"><rdf:RDF><cc:Work
         rdf:about=""><dc:format>image/svg+xml</dc:format><dc:type
           rdf:resource="http://purl.org/dc/dcmitype/StillImage" /><dc:title></dc:title></cc:Work></rdf:RDF></metadata><defs
     id="defs3008"><clipPath
       id="clipPath3018"><path
         d="m 0,283.46 283.46,0 L 283.46,0 0,0 0,283.46 z"
         id="path3020" /></clipPath></defs><g
     transform="matrix(1.25,0,0,-1.25,-37.395649,316.76343)"
     id="g3012"
     style="fill:#000000"><g
       id="g3014"
       style="fill:#000000"><g
         clip-path="url(#clipPath3018)"
         id="g3016"
         style="fill:#000000"><g
           transform="translate(239.9121,138.9805)"
           id="g3022"
           style="fill:#000000"><path
             d="m 0,0 c -0.054,-0.275 -0.06,-0.446 -0.12,-0.595 -0.275,-0.68 0.13,-1.223 0.602,-1.413 0.51,-0.203 0.821,0.413 1.047,0.833 0.257,0.473 0.131,0.807 -0.477,0.787 C 0.678,-0.4 0.363,-0.261 0,0 m -156.335,-72.765 c -0.317,0.051 -0.449,0.064 -0.578,0.096 -0.724,0.179 -1.444,-0.131 -1.799,-0.733 -0.249,-0.419 -0.056,-0.801 0.172,-1.058 0.28,-0.319 0.446,0.132 0.623,0.278 0.501,0.415 0.974,0.867 1.582,1.417 m 8.577,124.474 c 0.019,0.34 0.021,0.634 -0.331,0.708 -0.515,0.109 -0.877,-0.165 -1.029,-0.611 -0.158,-0.461 -0.215,-0.957 -0.445,-1.4 -0.082,-0.154 -0.071,-0.332 0.08,-0.446 0.146,-0.111 0.332,-0.105 0.453,0.023 0.505,0.534 1.038,1.052 1.272,1.726 m -5.309,-7.35 c 0.483,0.009 0.703,0.285 0.893,0.527 0.351,0.447 0.623,0.946 1.13,1.27 0.366,0.234 0.828,0.76 0.608,1.023 -0.302,0.362 -0.898,0.134 -1.312,-0.176 -0.129,-0.098 -0.28,-0.199 -0.354,-0.335 -0.383,-0.712 -0.811,-1.41 -0.965,-2.309 m 39.212,16.409 c 1.392,1.762 2.274,3.808 3.455,5.713 -0.339,-0.397 -1.204,-0.092 -1.173,-0.799 0.034,-0.778 -0.322,-1.308 -0.799,-1.804 -0.841,-0.874 -1.182,-1.981 -1.483,-3.11 m -41.37,-130.61 c -2.384,-1.127 -4.895,-2.041 -7.248,-3.775 0.615,0.093 0.903,0.284 1.205,0.479 0.566,0.364 1.111,0.727 1.844,0.801 0.405,0.04 0.322,-0.362 0.482,-0.32 0.346,0.092 0.215,0.433 0.246,0.683 0.076,-0.01 0.159,-0.006 0.227,-0.036 0.311,-0.135 0.504,0.129 0.754,0.203 0.542,0.158 0.647,0.823 1.079,0.991 0.556,0.215 0.981,0.566 1.411,0.974 m 45.549,148.011 c -0.133,-1.232 -0.652,-2.437 -0.229,-3.87 0.613,1.327 2.138,1.974 1.868,3.578 -0.694,-0.546 -1.108,-0.471 -1.639,0.292 m -25.992,-38.054 c -0.3,0.025 -0.589,-0.136 -0.902,-0.344 -0.97,-0.642 -0.601,-1.875 -1.226,-2.661 -0.057,-0.071 -0.011,-0.242 0.112,-0.26 0.088,-0.012 0.237,0.043 0.278,0.113 0.556,0.974 1.903,1.141 2.306,2.265 0.074,0.204 0.555,0.136 0.361,0.519 -0.179,0.355 -0.52,0.358 -0.929,0.368 m 2.155,24.983 c -1.799,-1.124 -3.15,-2.448 -4.401,-3.91 -0.87,-1.019 -1.345,-2.294 -2.304,-3.259 -0.911,-0.918 -1.443,-2.157 -1.497,-3.407 -0.05,-1.173 -0.3,-2.27 -0.602,-3.367 -0.159,-0.577 -0.164,-1.132 -0.117,-1.704 0.021,-0.255 0.132,-0.486 0.42,-0.544 0.241,-0.048 0.444,0.064 0.56,0.264 0.505,0.873 1.168,1.649 1.547,2.598 0.635,1.587 1.026,3.298 2.306,4.561 0.075,0.072 0.137,0.188 0.145,0.29 0.093,1.046 0.595,1.952 1.127,2.79 0.645,1.019 0.977,2.167 1.562,3.209 0.419,0.746 1.071,1.392 1.254,2.479 m -22.489,-129.201 c -0.333,-0.339 -0.18,-0.59 -0.08,-0.843 0.121,-0.306 0.253,-0.607 0.354,-0.92 0.083,-0.255 0.224,-0.574 -0.054,-0.756 -0.32,-0.212 -0.514,0.121 -0.655,0.322 -0.826,1.184 -1.917,2.107 -2.979,3.055 -1.64,1.466 -2.564,3.401 -3.57,5.287 -0.774,1.451 -1.561,2.896 -2.327,4.352 -0.796,1.51 -1.286,3.114 -1.064,4.826 0.255,1.976 -0.432,3.719 -1.163,5.464 -0.499,1.188 -0.488,2.514 0.002,3.521 0.453,0.933 1.047,1.891 1.682,2.772 1.212,1.684 2.204,3.499 3.246,5.291 1.047,1.802 1.437,3.726 1.964,5.67 0.357,1.324 1.176,2.525 1.807,3.771 0.235,0.464 0.546,0.887 0.401,1.46 -0.035,0.137 0.048,0.325 0.125,0.463 1.611,2.867 3.162,5.776 5.122,8.426 1.1,1.485 2.678,2.502 4.011,3.761 2.174,2.053 4.832,3.522 6.871,5.741 0.494,0.537 0.668,1.047 0.556,1.775 -0.178,1.144 -0.05,2.216 0.264,3.409 0.504,1.92 1.791,3.561 1.86,5.615 0.019,0.543 -0.113,0.659 -0.557,0.565 -0.536,-0.114 -1.056,-0.306 -1.594,-0.405 -3.609,-0.661 -7.237,-1.2 -10.893,-1.537 -2.731,-0.252 -5.419,-0.798 -8.124,-1.222 -1.315,-0.204 -2.687,-0.076 -3.936,-0.698 -0.567,-0.282 -1.113,-0.584 -1.633,-0.947 -1.627,-1.136 -3.416,-1.416 -5.233,-0.64 -2.652,1.133 -5.354,1.523 -8.19,0.977 -1.08,-0.208 -2.129,0.112 -3.183,0.252 -1.527,0.201 -3.058,0.303 -4.593,0.287 -1.618,-0.018 -3.024,0.717 -4.51,1.171 -0.367,0.112 -0.532,0.444 -0.675,0.785 -0.179,0.431 -0.373,0.873 -0.797,1.122 -0.947,0.558 -1.89,1.113 -2.592,1.991 -0.079,0.098 -0.226,0.169 -0.353,0.194 -1.078,0.222 -1.935,0.716 -2.403,1.776 -0.162,0.367 -0.536,0.54 -0.906,0.667 -0.916,0.314 -1.723,0.831 -2.555,1.311 -1.357,0.783 -2.29,1.848 -2.562,3.435 -0.127,0.733 -0.711,1.146 -1.226,1.599 -0.699,0.616 -1.413,1.214 -2.095,1.85 -0.505,0.47 -0.922,1.026 -1.153,1.683 -0.136,0.386 -0.094,0.777 0.479,0.505 0.311,-0.148 0.447,-0.054 0.422,0.222 -0.194,2.11 0.427,4.132 0.647,6.196 0.007,0.067 -0.021,0.138 -0.042,0.261 -0.313,-0.56 -0.376,-1.137 -0.534,-1.684 -0.054,-0.185 -0.087,-0.403 -0.297,-0.462 -0.266,-0.074 -0.408,0.156 -0.516,0.326 -0.462,0.728 -0.778,1.512 -0.762,2.394 0.012,0.603 0.012,1.207 0.065,1.806 0.019,0.223 0.076,0.567 0.388,0.544 0.337,-0.023 0.267,-0.357 0.272,-0.591 0.009,-0.45 0.002,-0.901 0.074,-1.368 0.226,0.997 0.921,1.665 1.509,2.412 0.907,1.154 1.637,2.4 1.684,3.937 0.008,0.289 0.16,0.573 0.277,0.964 -0.486,-0.209 -0.61,-0.726 -0.988,-0.943 -0.16,-0.092 -0.322,-0.283 -0.511,-0.115 -0.193,0.174 -0.038,0.373 0.073,0.51 0.999,1.24 2.038,2.4 3.875,2.166 1.243,-0.158 2.452,0.058 3.657,0.379 1.977,0.525 2.699,0.152 3.406,-1.745 0.531,-1.428 0.405,-2.812 -0.503,-4.064 -0.207,-0.286 -0.308,-0.469 -0.061,-0.774 0.451,-0.559 0.546,-1.251 0.604,-1.935 0.082,-0.97 0.437,-1.507 1.349,-1.677 1.021,-0.191 2.025,-0.096 2.89,0.589 1.081,0.853 0.982,2.189 -0.23,2.809 -0.793,0.407 -1.366,0.993 -1.704,1.818 -0.118,0.289 -0.192,0.584 -0.072,0.879 0.388,0.954 0.313,1.945 0.212,2.925 -0.302,2.922 0.729,3.652 3.534,4.095 1.264,0.199 2.271,-0.249 3.18,-1.15 1.079,-1.07 1.99,-2.262 2.897,-3.467 0.695,-0.921 1.474,-1.75 2.436,-2.425 1.8,-1.265 3.403,-2.765 4.892,-4.382 1.243,-1.349 1.696,-3.038 1.974,-4.793 0.173,-1.092 0.193,-1.146 1.302,-1.039 2.212,0.213 3.959,1.395 5.517,2.86 1.138,1.07 2.206,2.216 3.257,3.373 1.352,1.487 3.034,2.319 4.982,2.657 1.606,0.279 3.076,0.783 4.126,2.141 0.351,0.456 0.568,0.889 0.515,1.496 -0.105,1.207 0.018,2.414 0.315,3.589 0.136,0.54 0.21,1.122 0.81,1.456 0.217,0.121 0.329,0.491 0.417,0.771 0.883,2.825 2.461,5.293 3.985,7.787 0.299,0.491 0.701,0.925 1.085,1.334 0.855,0.914 0.907,2.013 0.774,3.085 -0.214,1.739 0.253,3.299 0.938,4.83 0.278,0.623 0.659,1.2 1.006,1.789 0.092,0.155 0.196,0.407 0.425,0.299 0.28,-0.13 0.036,-0.321 -0.024,-0.477 -0.077,-0.201 -0.175,-0.396 -0.266,-0.6 0.735,-0.147 0.872,-0.402 0.538,-1.048 -0.288,-0.557 -0.734,-1.031 -0.88,-1.665 -0.037,-0.157 -0.109,-0.339 0.043,-0.46 0.164,-0.131 0.291,0.048 0.438,0.098 1.236,0.416 2.16,1.399 3.381,1.842 0.297,0.108 0.398,0.395 0.333,0.681 -0.076,0.33 -0.351,0.268 -0.604,0.227 -0.767,-0.124 -1.068,0.263 -0.773,1.006 0.07,0.176 0.222,0.323 0.278,0.501 0.179,0.586 0.343,1.166 -0.416,1.523 -0.461,0.219 -0.453,0.549 -0.115,0.921 1.776,1.965 3.754,3.665 6.126,4.883 1.048,0.539 2.041,1.179 3.181,1.53 2.5,0.769 5.043,0.995 7.621,0.534 0.676,-0.121 1.415,-0.065 2.02,-0.536 -1.193,0.013 -2.366,0.595 -3.76,0.075 0.742,-0.181 1.322,-0.289 1.875,-0.473 0.349,-0.115 0.778,-0.238 0.822,-0.706 0.043,-0.447 -0.179,-0.781 -0.561,-1.021 -1.124,-0.705 -2.121,-1.591 -3.233,-2.336 1.061,0.537 2.12,1.08 3.187,1.607 0.391,0.194 0.798,0.359 1.203,0.523 0.456,0.186 1.151,0.21 0.535,0.995 -0.166,0.211 0.039,0.412 0.245,0.525 1.585,0.87 3.084,1.867 4.546,2.933 0.382,0.279 0.917,0.527 1.536,0.313 0.616,-0.212 1.94,0.951 1.973,1.638 -0.22,0.15 -0.265,-0.106 -0.39,-0.174 -0.13,-0.069 -0.27,-0.111 -0.374,0.01 -0.118,0.136 0.016,0.245 0.085,0.357 0.558,0.908 1.506,1.303 2.348,1.861 1.064,0.705 2.426,1.184 2.768,2.612 0.195,0.813 0.139,1.683 0.246,2.521 0.152,1.196 -0.155,2.395 0.065,3.589 0.056,0.303 0.102,0.615 0.344,0.816 0.271,0.224 0.321,0.469 0.255,0.797 -0.118,0.573 0.254,1.049 0.351,1.579 0.479,2.605 1.224,5.167 1.223,7.851 0,0.728 0.199,1.408 0.785,1.921 0.208,0.181 0.352,0.416 0.359,0.72 -1.053,-0.392 -2.133,-2.195 -1.962,-3.247 0.018,-0.107 0.056,-0.222 0.035,-0.323 -0.528,-2.566 -0.558,-5.215 -1.309,-7.744 -0.022,-0.072 -0.079,-0.134 -0.126,-0.212 -0.449,0.505 -0.445,1.097 -0.246,1.637 0.661,1.797 0.638,3.655 0.609,5.523 -0.013,0.809 0.032,1.52 0.692,2.232 0.685,0.741 1.131,1.719 1.832,2.505 0.417,0.471 0.158,1.171 0.07,1.746 -0.075,0.495 -0.023,0.913 0.194,1.343 0.579,1.155 1.252,2.237 2.115,3.215 0.459,0.519 0.26,1.327 0.584,1.954 0.106,0.202 0.102,0.48 0.322,0.623 0.335,0.217 0.613,0.346 0.31,0.878 -0.219,0.385 0.341,0.464 0.61,0.591 0.457,0.215 1.209,0.108 0.634,1.065 -0.275,0.458 0.363,0.62 0.783,0.579 0.322,-0.032 0.63,-0.204 0.953,-0.245 0.509,-0.066 1.007,-0.095 1.001,0.681 -0.004,0.553 0.328,0.54 0.725,0.317 0.355,-0.197 0.652,-0.338 0.682,0.315 0.019,0.42 0.42,0.372 0.708,0.266 0.332,-0.122 0.643,-0.306 0.964,-0.463 0.147,-0.072 0.359,-0.245 0.435,-0.198 0.954,0.581 1.205,-0.418 1.71,-0.802 0.25,0.254 0.071,0.517 0.14,0.741 0.106,0.329 0.332,0.446 0.632,0.283 0.307,-0.167 0.642,-0.337 0.868,-0.593 0.495,-0.561 0.985,-0.931 1.812,-0.704 0.542,0.15 0.685,-0.376 0.75,-0.774 0.103,-0.617 0.363,-0.876 1.004,-0.689 0.757,0.221 1.033,-0.062 1.419,-0.822 0.48,-0.935 1.314,-1.8 2.407,-2.231 0.378,-0.15 0.824,-0.205 0.52,-0.834 -0.182,-0.379 0.204,-0.553 0.495,-0.586 0.52,-0.06 0.626,-0.372 0.574,-0.791 -0.07,-0.58 0.355,-0.908 0.575,-1.353 0.635,-1.292 1.737,-2.242 2.399,-3.497 0.149,-0.283 0.409,-0.648 0.173,-0.91 -0.253,-0.28 -0.51,0.169 -0.789,0.209 -0.08,0.012 -0.157,0.038 -0.29,0.071 -0.071,-0.387 0.224,-0.601 0.359,-0.865 0.437,-0.862 0.353,-1.443 -0.332,-2.111 -0.736,-0.717 -0.875,-1.654 -0.374,-2.536 0.067,-0.118 0.235,-0.276 0.202,-0.338 -0.499,-0.985 0.365,-1.326 0.843,-1.867 1.85,-2.093 1.156,-4.876 -0.927,-6.165 -0.489,-0.302 -0.566,-0.562 -0.399,-1.043 0.18,-0.518 0.426,-1.047 0.444,-1.578 0.05,-1.276 0.817,-1.837 1.864,-2.315 1.833,-0.833 3.794,-1.257 5.671,-1.943 4.372,-1.599 8.605,-3.442 12.149,-6.56 0.297,-0.26 0.585,-0.327 0.973,-0.278 9.844,1.252 17.809,-2.165 23.985,-9.816 1.865,-2.31 2.97,-5.047 3.622,-7.95 0.418,-1.87 0.875,-3.733 1.07,-5.649 0.126,-1.245 0.838,-2.241 1.518,-3.24 1.64,-2.41 3.138,-4.908 4.097,-7.664 0.547,-1.571 0.843,-3.231 1.202,-4.862 0.177,-0.804 0.618,-1.186 1.411,-1.374 2.795,-0.66 5.441,-1.676 7.749,-3.451 0.899,-0.691 1.727,-1.443 2.312,-2.424 1.33,-2.229 2.103,-4.621 2.248,-7.231 0.076,-1.375 0.409,-2.701 1.276,-3.847 0.357,-0.475 0.622,-0.467 0.933,-0.009 0.992,1.458 2.463,2.404 3.773,3.522 0.229,0.196 0.446,0.407 0.68,0.595 0.471,0.377 0.489,0.719 0.126,1.247 -1.317,1.931 -1.469,4.026 -0.662,6.193 0.32,0.86 0.956,1.353 1.906,1.251 1.713,-0.184 3.166,0.348 4.472,1.446 0.649,0.544 1.402,0.658 2.228,0.273 C 3.312,28.929 4.95,27.687 6.226,25.98 6.923,25.047 6.781,23.948 6.779,22.892 6.778,21.144 5.819,19.718 5.117,18.211 4.662,17.232 4.661,17.165 5.729,16.899 6.952,16.595 8.198,16.384 9.423,16.09 c 2.246,-0.541 4.121,-1.609 5.256,-3.735 0.523,-0.98 1.511,-1.586 2.114,-2.511 0.284,-0.437 0.611,-0.846 0.88,-1.29 0.736,-1.221 0.956,-2.448 0.28,-3.821 C 17.109,3.02 16.166,1.514 14.233,0.794 12.775,0.251 11.41,-0.535 9.955,-1.118 8.986,-1.506 8.905,-1.737 9.612,-2.444 c 1.599,-1.604 1.948,-3.532 1.697,-5.681 -0.096,-0.816 -0.537,-1.359 -1.131,-1.827 -0.647,-0.508 -1.297,-1.014 -1.977,-1.477 -0.921,-0.626 -1.963,-0.326 -2.962,-0.306 -1.605,0.029 -2.924,0.758 -4.208,1.656 -1.209,0.846 -2.5,1.575 -3.757,2.357 -0.211,0.131 -0.419,0.264 -0.742,0.165 -0.024,-0.387 0.324,-0.586 0.484,-0.875 0.944,-1.702 1.939,-3.376 2.826,-5.109 0.767,-1.503 -0.071,-4.246 -1.498,-5.121 -0.678,-0.415 -1.39,-0.773 -2.093,-1.143 -2.674,-1.404 -5.4,0.402 -6.768,2.427 -0.613,0.908 -1.197,1.838 -1.788,2.762 -0.17,0.262 -0.353,0.533 -0.695,0.492 -0.406,-0.049 -0.367,-0.436 -0.411,-0.715 -0.232,-1.49 -0.464,-2.974 -0.953,-4.413 -0.849,-2.501 -3.478,-3.769 -5.981,-2.839 -0.385,0.145 -0.78,0.277 -1.142,0.469 -0.771,0.406 -1.406,0.931 -1.599,1.862 -0.185,0.888 -0.512,1.739 -0.935,2.541 -0.996,1.889 -1.203,4.041 -2.03,5.989 -0.17,0.401 -0.112,0.921 -0.084,1.382 0.034,0.538 -0.154,0.785 -0.691,0.905 -1.685,0.374 -3.354,0.822 -5.038,1.198 -2.449,0.546 -4.675,1.606 -6.686,3.058 -3.022,2.184 -6.022,4.416 -8.595,7.135 -1.946,2.057 -3.501,4.381 -3.924,7.266 -0.231,1.577 -0.119,3.18 -0.065,4.766 0.042,1.196 -0.321,2.061 -1.364,2.672 -0.755,0.443 -1.422,1.048 -2.198,1.437 -1.38,0.691 -2.414,1.695 -3.129,3.04 -0.3,0.567 -0.536,0.538 -0.916,0.05 -1.754,-2.25 -3.575,-4.439 -5.772,-6.287 -0.801,-0.674 -1.6,-1.355 -2.529,-1.824 -2.054,-1.035 -3.753,-2.567 -5.612,-3.872 -0.267,-0.186 -0.482,-0.447 -0.708,-0.685 -0.258,-0.273 -0.487,-0.735 -0.351,-0.963 0.508,-0.852 0.447,-1.945 1.308,-2.656 1.919,-1.582 3.152,-3.669 3.995,-5.975 0.472,-1.298 0.154,-2.657 -0.254,-3.883 -0.532,-1.597 -0.295,-2.68 0.941,-3.947 2.459,-2.526 4.886,-5.102 7.042,-7.919 2.165,-2.824 3.702,-5.928 4.929,-9.243 1.009,-2.725 1.086,-5.518 0.993,-8.35 -0.083,-2.499 -0.466,-4.964 -0.973,-7.406 -0.156,-0.751 -0.017,-1.411 0.245,-2.081 0.303,-0.773 0.776,-1.446 1.273,-2.106 0.434,-0.574 1.013,-0.924 1.722,-1.022 1.034,-0.142 1.809,-0.765 2.574,-1.381 0.62,-0.498 0.573,-0.698 -0.134,-1.131 0.097,-0.319 0.401,-0.43 0.638,-0.587 1.658,-1.087 2.773,-2.544 3.18,-4.515 0.065,-0.318 0.227,-0.615 0.328,-0.928 0.075,-0.233 0.316,-0.498 -0.204,-0.585 -0.31,-0.051 -0.106,-0.312 -0.004,-0.449 1.392,-1.9 1.885,-4.074 2.187,-6.373 0.181,-1.37 0.571,-2.717 0.7,-4.115 0.075,-0.775 -0.299,-1.422 -0.293,-2.173 0.013,-1.473 0.351,-2.88 0.638,-4.302 0.193,-0.94 0.41,-1.874 0.609,-2.813 0.085,-0.409 -0.194,-0.706 -0.305,-1.028 -0.233,-0.673 -0.917,-1.19 -0.746,-2.038 0.093,-0.469 -0.025,-0.982 -0.073,-1.473 -0.021,-0.215 -0.076,-0.454 -0.341,-0.508 -0.272,-0.054 -0.384,0.172 -0.502,0.351 -0.163,0.243 -0.304,0.504 -0.479,0.797 -0.287,-0.526 -0.211,-0.971 0.062,-1.418 0.388,-0.638 0.707,-1.298 0.703,-2.075 -0.003,-0.378 0.236,-0.65 0.508,-0.904 1.101,-1.03 2.181,-2.083 3.285,-3.111 2.98,-2.78 5.558,-5.915 7.911,-9.224 1.477,-2.077 3.425,-3.63 5.344,-5.203 1.591,-1.303 3.106,-2.589 3.88,-4.562 0.115,-0.295 0.358,-0.549 0.572,-0.798 1.182,-1.376 0.879,-2.969 -0.742,-3.763 -0.306,-0.15 -0.461,-0.335 -0.512,-0.67 -0.217,-1.397 -1.103,-2.268 -2.531,-2.465 -0.359,-0.05 -0.646,-0.111 -0.744,-0.501 -0.572,-2.232 -2.53,-2.192 -4.19,-1.881 -0.506,0.095 -0.562,0.013 -0.656,-0.423 -0.287,-1.332 -0.953,-1.899 -2.305,-2.063 -2.45,-0.297 -4.401,1.175 -4.96,3.748 -0.094,0.428 -0.157,0.864 -0.263,1.289 -0.087,0.348 -0.222,0.685 -0.588,0.845 -0.203,0.09 -0.425,0.183 -0.618,0.013 -0.179,-0.155 -0.083,-0.363 -0.013,-0.535 0.3,-0.735 0.668,-1.446 0.909,-2.198 0.47,-1.462 0.729,-2.936 -0.211,-4.344 -0.706,-1.053 -1.614,-1.637 -2.955,-1.573 -1.841,0.086 -3.685,0.042 -5.185,1.396 -0.802,0.726 -1.166,1.506 -1.073,2.667 0.096,1.208 -0.517,2.242 -1.428,3.156 -1.552,1.558 -3.051,3.208 -3.54,5.47 -0.212,0.984 -0.562,1.947 -0.53,2.982 0.006,0.176 -0.074,0.409 -0.198,0.526 -0.968,0.912 -1.052,2.238 -1.58,3.353 -0.278,0.586 -0.633,0.968 -1.224,1.235 -1.099,0.494 -2.211,0.98 -3.201,1.682 -2.259,1.602 -3.626,3.691 -3.536,6.564 0.031,0.986 -0.022,1.975 0.142,2.956 0.063,0.37 -0.027,0.7 -0.284,0.991 -0.794,0.892 -1.199,1.892 -1.22,3.132 -0.018,1.042 -0.54,1.945 -1.598,2.397 -0.346,0.147 -0.59,0.206 -0.503,-0.33 0.076,-0.475 0.312,-1.161 -0.134,-1.372 -0.518,-0.243 -0.716,0.519 -1.056,0.83 -0.429,0.391 -0.88,0.741 -1.367,1.049 -1.152,0.732 -2.051,1.696 -2.631,3.001 -0.254,-0.354 0.039,-0.83 -0.372,-0.943 -0.377,-0.105 -0.554,0.288 -0.776,0.509 -2.1,2.082 -3.366,4.67 -4.436,7.372 -0.336,0.847 -0.37,1.767 -0.381,2.672 -0.015,1.015 -0.01,2.032 0.047,3.044 0.038,0.676 -0.039,1.218 -0.717,1.577 -0.422,0.221 -0.532,0.698 -0.518,1.149 0.046,1.553 -0.573,2.845 -1.442,4.087 -1.652,2.356 -2.415,5.086 -3.113,7.828 -0.135,0.535 -0.352,0.932 -0.791,1.279 -1.759,1.398 -3.506,2.813 -5.154,4.346 -2.078,1.934 -3.515,4.321 -4.928,6.747 -1.199,2.062 -2.142,4.262 -3.498,6.237 -0.941,1.372 -2.275,2.066 -3.832,2.297 -1.213,0.179 -2.461,0.126 -3.692,0.194 -0.552,0.03 -0.965,-0.215 -1.435,-0.479 -3.254,-1.819 -5.65,-4.659 -8.446,-7.02 -2.583,-2.181 -5.587,-3.544 -8.792,-4.514 -1.861,-0.563 -3.692,-1.234 -5.606,-1.622 -0.596,-0.121 -1.187,-0.184 -1.791,-0.213 -1.069,-0.051 -1.239,-0.379 -0.772,-1.351 0.372,-0.774 0.951,-1.322 1.708,-1.712 0.841,-0.431 1.445,-1.085 1.712,-2.008 0.122,-0.42 0.259,-0.865 -0.187,-1.2 -0.291,-0.219 -0.079,-0.454 -0.018,-0.667 0.674,-2.386 0.234,-4.668 -0.637,-6.91 -0.093,-0.239 -0.218,-0.576 -0.566,-0.47 -0.289,0.089 -0.234,0.414 -0.217,0.647 0.069,0.987 -0.243,2.008 0.397,2.951 0.227,0.334 0.102,0.854 -0.132,1.324 -0.309,-0.301 -0.355,-0.693 -0.511,-1.025 -0.208,-0.444 -0.341,-0.846 -0.887,-1.151 -0.542,-0.304 -0.631,-1.189 -0.72,-1.851 -0.339,-2.514 -0.112,-4.922 1.51,-7.034 1.696,-2.209 2.948,-4.677 4.109,-7.194 1.769,-3.834 -0.25,-8.577 -4.231,-9.98 -2.039,-0.719 -4.119,-0.825 -6.243,-0.582 -1.252,0.145 -2.508,0.254 -3.763,0.379 -2.39,0.239 -4.34,-0.948 -6.34,-1.964 -1.444,-0.733 -2.525,-2.047 -4.082,-2.596 -3.455,-1.218 -6.962,-2.155 -10.681,-1.87 -0.243,0.02 -0.493,0.063 -0.723,0.143 -0.65,0.229 -1.133,0.069 -1.732,-0.328 -1.719,-1.14 -3.648,-1.772 -5.739,-1.717 -1.723,0.046 -2.772,1.025 -3.318,2.599 -0.187,0.54 -0.368,1.026 -0.809,1.469 -0.89,0.896 -0.829,2.382 0.034,3.294 0.281,0.297 0.374,0.568 0.233,0.953 -0.242,0.658 0.047,1.075 0.615,1.425 0.656,0.406 1.264,0.779 1.502,1.702 0.19,0.738 1.053,1.22 1.709,1.712 0.317,0.237 0.619,0.444 0.653,0.885 0.015,0.196 0.146,0.349 0.304,0.47 1.305,1.003 2.567,2.073 4.166,2.6 0.232,0.077 0.506,0.215 0.709,0.156 1.021,-0.308 1.692,0.387 2.453,0.803 1.845,1.009 3.62,2.148 5.599,2.903 1.383,0.529 2.575,1.427 3.879,2.114 0.201,0.105 0.411,0.319 0.168,0.518 -1.079,0.885 -1.355,2.278 -2.155,3.335 -0.113,0.149 -0.213,0.306 -0.347,0.5"
             id="path3024"
             style="fill:#000000;fill-opacity:1;fill-rule:evenodd;stroke:none" /></g></g></g></g></svg>