<?xml version="1.0" encoding="utf-8"?>
<!-- Generator: Adobe Illustrator 19.1.0, SVG Export Plug-In . SVG Version: 6.00 Build 0)  -->
<svg version="1.1" id="Layer_1" xmlns="http://www.w3.org/2000/svg" xmlns:xlink="http://www.w3.org/1999/xlink" x="0px" y="0px"
	 viewBox="0 0 15.4 6.9" enable-background="new 0 0 15.4 6.9" xml:space="preserve">
<g>
	<path fill="#FFFDFD" d="M15.4,3.4c0,0.1,0,0.2-0.1,0.2l-3.4,3.2c-0.1,0.1-0.2,0.1-0.3,0.1c-0.1-0.1-0.2-0.1-0.2-0.3v-2H0.3
		c-0.1,0-0.2,0-0.2-0.1C0,4.4,0,4.4,0,4.3V2.6c0-0.1,0-0.2,0.1-0.2c0.1-0.1,0.1-0.1,0.2-0.1h11.1v-2c0-0.1,0.1-0.2,0.2-0.3
		c0.1,0,0.2,0,0.3,0l3.4,3.1C15.4,3.3,15.4,3.3,15.4,3.4z"/>
</g>
</svg>
