<?xml version="1.0" standalone="no"?>
<!DOCTYPE svg PUBLIC "-//W3C//DTD SVG 20010904//EN"
 "http://www.w3.org/TR/2001/REC-SVG-20010904/DTD/svg10.dtd">
<svg version="1.0" xmlns="http://www.w3.org/2000/svg"
 width="500.000000pt" height="500.000000pt" viewBox="0 0 500.000000 500.000000"
 preserveAspectRatio="xMidYMid meet">
<metadata>
Created by potrace 1.11, written by Peter Selinger 2001-2013
</metadata>
<g transform="translate(0.000000,500.000000) scale(0.100000,-0.100000)"
fill="#000000" stroke="none">
<path d="M2540 3964 c-497 -65 -914 -363 -1135 -809 -63 -127 -118 -289 -131
-383 -3 -26 -9 -56 -11 -67 -3 -11 -7 -92 -9 -180 -2 -142 3 -227 22 -314 3
-14 7 -39 10 -55 17 -91 93 -278 171 -421 84 -153 299 -372 479 -487 56 -36
284 -144 284 -135 0 1 9 34 21 72 11 39 22 77 23 85 10 44 28 108 36 130 5 14
12 36 14 50 3 14 21 81 41 150 49 175 51 159 -16 200 -189 116 -325 311 -374
540 -14 64 -15 294 -1 349 78 321 267 537 552 630 233 76 540 22 729 -129 70
-56 110 -73 136 -59 18 9 89 80 295 295 109 112 103 136 -66 263 -191 144
-358 219 -584 262 -135 25 -350 31 -486 13z"/>
<path d="M3322 1887 c-11 -7 -51 -33 -89 -58 -114 -76 -256 -128 -392 -142
-30 -3 -57 -9 -61 -14 -5 -4 -10 -26 -13 -48 -3 -22 -10 -60 -16 -85 -5 -25
-12 -56 -14 -70 -6 -31 -35 -186 -42 -218 -2 -13 -6 -31 -9 -40 -3 -9 -8 -37
-11 -62 -3 -25 -10 -61 -15 -80 -7 -25 -6 -36 3 -42 13 -8 180 -4 262 7 176
23 400 98 530 178 77 47 187 129 236 177 92 88 91 91 -82 275 -226 240 -238
249 -287 222z"/>
</g>
</svg>
