<?xml version="1.0" standalone="no"?>
<!DOCTYPE svg PUBLIC "-//W3C//DTD SVG 1.1//EN" "http://www.w3.org/Graphics/SVG/1.1/DTD/svg11.dtd" >
<svg xmlns="http://www.w3.org/2000/svg">
<metadata>Generated by IcoMoon</metadata>
<defs>
<font id="campudus" horiz-adv-x="1024">
<font-face units-per-em="1024" ascent="960" descent="-64" />
<missing-glyph horiz-adv-x="1024" />
<glyph unicode="&#x20;" horiz-adv-x="512" d="" />
<glyph unicode="&#xe600;" glyph-name="uniE600" horiz-adv-x="5041" d="M525.974 878.859c7.874-6.987 7.874-17.432 0.897-24.419l-68.024-70.655c-6.090-6.090-15.698-6.090-21.798 0-32.273 28.774-75.011 44.482-117.759 44.482-98.593 0-170.972-81.998-170.972-179.694 0-69.657 38.040-130.594 96.072-159.368l-38.201-138.367c-120.592 43.615-206.189 158.007-206.189 294.216 0 174.471 140.444 314.915 314.885 314.915 87.241-0.010 151.776-27.050 211.089-81.111zM2539.987 758.448c0-108.171-88.087-196.289-194.524-196.289h-91.606v-205c0-8.721-7.874-16.565-16.595-16.565h-102.948c-9.608 0-16.565 7.854-16.565 16.565v577.493h0.030c0 8.721 6.987 16.565 16.565 16.565h210.232c107.304 0 195.391-87.22 195.412-192.77zM2405.673 758.469c0 36.628-31.426 64.566-68.921 64.566h-82.865v-133.457h82.865c37.485 0 68.891 29.641 68.921 68.891zM3855.632 646.759c0-169.218-137.812-306.164-306.164-306.164h-212.823c-8.721 0-15.698 7.854-15.698 16.565v577.493c0 8.721 6.987 16.565 15.698 16.565h212.823c168.381 0 306.164-136.925 306.164-304.46zM3710.863 646.809c0 98.563-71.523 176.205-170.105 176.205h-83.732v-353.267h83.732c98.583-0.010 170.105 77.602 170.105 177.062zM2779.709 63.962c0-71.281-57.004-127.942-128.285-127.942s-127.942 56.661-127.942 127.942c0.030 71.26 56.682 128.658 127.942 128.658 71.281-0.010 128.305-57.397 128.285-128.658zM2754.766 63.982c0 56.661-46.66 103.684-103.342 103.684s-102.999-47.023-102.999-103.684c0-56.682 46.368-102.999 102.999-102.999 56.661 0 103.342 46.317 103.342 102.999zM2457.576-36.516h-102.636v218.812c0 3.549-3.226 6.775-6.775 6.775h-13.913c-3.942 0-6.775-3.226-6.775-6.775v-235.932c0-3.549 2.833-6.775 6.775-6.775h123.324c3.912 0 6.745 3.226 6.745 6.775v10.344c0 3.569-2.833 6.775-6.745 6.775zM3042.449 110.3c0-44.21-35.993-80.213-79.477-80.213h-58.839v-83.752c0-3.549-3.206-6.775-6.745-6.775h-13.55c-3.942 0-6.775 3.226-6.775 6.775v235.962c0 3.549 2.833 6.775 6.775 6.775h78.772c43.837 0 79.84-35.63 79.84-78.772zM3014.986 111.005c0 28.855-24.943 50.965-54.161 50.965h-56.682v-105.499h56.682c29.218 0.010 54.161 23.874 54.161 54.534zM3181.099 934.674h0.050c0 8.721-7.854 16.565-16.565 16.565h-107.304c-9.588 0-16.565-7.854-16.565-16.565v-353.267c0-61.067-46.257-109.935-109.038-109.935-61.965 0-107.304 48.838-107.304 109.935v353.267c0 8.721-6.987 16.565-16.565 16.565h-107.304c-8.721 0-16.565-7.854-16.565-16.565h-0.030v-360.254c0-132.59 110.802-242.495 247.748-242.495 137.792 0 249.452 109.905 249.452 242.495v360.254h-0.010zM3279.429 189.071h-140.393c-3.942 0-6.775-3.226-6.775-6.775v-235.901c0-3.549 2.833-6.775 6.775-6.775h140.393c3.942 0 6.775 3.226 6.775 6.775v10.344c0 3.569-2.863 6.775-6.775 6.775h-119.755v90.87h102.293c3.569 0 6.775 2.863 6.775 6.745v10.344c0 3.539-3.206 6.745-6.775 6.745h-102.293v86.958h119.755c3.942 0 6.775 3.206 6.775 6.775v10.344c0 3.539-2.863 6.775-6.775 6.775zM2220.908 189.071h-140.414c-3.942 0-6.775-3.226-6.775-6.775v-235.901c0-3.549 2.833-6.775 6.775-6.775h140.414c3.942 0 6.775 3.226 6.775 6.775v10.344c0 3.569-2.833 6.775-6.775 6.775h-119.755v90.87h102.293c3.569 0 6.775 2.863 6.775 6.745v10.344c0 3.539-3.206 6.745-6.775 6.745h-102.293v86.958h119.755c3.942 0 6.775 3.206 6.775 6.775v10.344c0 3.539-2.863 6.775-6.775 6.775zM3723.547 79.297c-29.954 12.441-48.122 26.365-48.122 50.229 0 14.962 11.423 39.199 49.201 39.199 21.737 0 44.19-14.962 46.68-16.414 5.696-3.176 9.265-1.754 12.472 3.226 1.442 2.147 2.833 4.648 4.285 6.775 4.255 6.775 0 11.050-2.158 12.129 0 0-26.042 18.168-60.936 18.168-56.631 0-75.908-39.23-75.908-63.437 0-40.641 23.522-56.661 62.701-73.781 40.984-17.089 62.358-31.718 62.358-56.288 0-21.031-18.874-39.199-47.729-39.199-31.749 0-57.74 24.943-60.231 27.070-4.991 4.285-8.923 1.442-12.472-3.206-1.785-2.147-3.549-4.648-5.354-6.775-4.285-6.775-0.706-9.639 2.127-12.109 4.648-4.305 33.13-28.885 75.192-28.885 41.72 0 76.977 27.091 76.977 64.142 0 41.367-30.982 59.565-79.084 79.155zM1986.025 189.071h-14.256c-2.833 0-5.333-2.147-6.039-3.942l-88.743-199.565h-1.442l-88.713 199.565c-0.706 1.785-2.833 3.942-6.069 3.942h-14.256c-5.333 0-8.197-4.648-6.039-9.265l107.647-239.813c1.079-2.147 3.569-3.942 6.059-3.942h3.549c2.833 0 4.991 1.785 6.069 3.942l108.332 239.823c2.117 4.608-0.716 9.255-6.1 9.255zM459.704 512.485c-5.253 6.090-16.595 6.090-22.685 0.897-30.014-25.861-71.936-40.379-111.377-41.619l-27.202-139.395c5.434-0.292 10.949-0.423 16.464-0.423 77.642 0 152.653 27.040 211.987 84.619 6.090 6.090 6.987 17.432 0.897 23.552l-68.085 72.369zM1189.004 363.33c5.223-11.342-1.764-22.685-14.831-22.685h-96.808c-15.698 0-22.685 5.223-30.539 21.798l-31.406 68.921h-237.242l-31.406-69.758c-4.355-10.475-13.974-20.951-31.406-20.951h-95.962c-13.046 0-20.033 11.342-14.811 22.685l273.034 587.051c2.621 5.253 8.741 9.608 14.831 9.608h8.721c6.090 0 12.209-4.355 14.811-9.608l273.014-587.061zM963.154 549.981l-66.29 143.932h-0.897l-65.433-143.932h132.62zM4473.908 951.218h-107.304c-9.588 0-16.565-7.854-16.565-16.565v-353.267c0-61.067-46.267-109.935-109.038-109.935-61.965 0-107.304 48.838-107.304 109.935v353.267c0 8.721-6.987 16.565-16.565 16.565h-107.304c-8.721 0-16.565-7.854-16.565-16.565h-0.030v-360.254c0-132.59 110.802-242.495 247.748-242.495 137.792 0 249.452 109.905 249.452 242.495v360.254c0.040 8.741-7.814 16.565-16.525 16.565zM3510.007 40.41l48.808-90.507c2.49-4.648 0-10.344-6.059-10.344h-18.148c-3.226 0-4.991 1.785-5.696 3.226l-47.416 94.439h-68.054v-90.87c0-3.549-3.226-6.775-6.775-6.775h-13.893c-3.942 0-6.775 3.226-6.775 6.775v235.911c0 3.549 2.833 6.775 6.775 6.775h92.312c42.768 0 77.693-33.473 77.693-75.908 0-32.787-21.737-60.231-52.77-72.722zM3534.658 112.82c0 27.091-23.895 50.229-51.328 50.229h-69.133v-102.293l69.133 0.030c27.464 0 51.328 22.786 51.328 52.034zM4864.882 711.315c-68.921 27.907-95.074 52.326-95.074 84.619 0 23.552 23.552 44.482 54.958 44.482 53.244 0 116.892-47.971 124.736-52.326 7.874-6.090 23.552 1.734 29.672 11.342l44.482 67.167c3.468 6.090 5.223 21.787-5.253 27.907-26.153 19.217-95.962 65.433-186.68 65.433-134.324 0-201.481-87.251-201.481-173.604 0-104.683 94.207-163.098 169.218-192.77 59.333-23.552 89.842-51.439 89.842-88.087 0-30.539-25.306-52.326-60.18-52.326-57.579 0-120.36 46.237-123.849 47.971-6.12 4.355-22.685 6.090-29.672-5.253l-40.984-72.39c-6.987-12.24-4.355-15.698 4.335-24.469 20.063-20.063 82.865-67.157 196.258-67.157 128.234 0 205.847 90.709 205.847 180.561 0.020 118.636-108.121 171.86-176.175 198.9zM1687.706 189.071h-140.414c-3.942 0-6.775-3.226-6.775-6.775v-235.901c0-3.549 2.833-6.775 6.775-6.775h140.414c3.912 0 6.745 3.226 6.745 6.775v10.344c0 3.569-2.863 6.775-6.745 6.775h-119.755v90.87h102.293c3.549 0 6.775 2.863 6.775 6.745v10.344c0 3.539-3.226 6.745-6.775 6.745h-102.293v86.958h119.755c3.912 0 6.745 3.206 6.745 6.775v10.344c0 3.539-2.853 6.775-6.745 6.775zM1442.821 64.698c0-69.133-56.288-125.079-125.079-125.079h-79.82c-3.599 0-6.432 3.226-6.432 6.775v235.901c0 3.549 2.863 6.775 6.432 6.775h79.82c68.79 0 125.079-55.956 125.079-124.373zM1412.918 64.718c0 58.416-42.426 100.136-100.872 100.136h-53.455v-200.644l53.455-0.030c58.446 0.010 100.872 41.7 100.872 100.539zM1621.093 331.894h15.698c4.355 0 12.209 4.355 14.831 9.608l146.533 282.612h1.734l39.25-269.535c0.867-6.987 8.721-13.964 16.565-13.964h102.948c10.475 0 18.329 7.854 16.595 19.217l-98.593 586.184c-0.897 7.874-8.721 13.964-15.698 13.964h-13.964c-4.355 0-12.209-3.468-14.831-8.721l-202.378-376.819h-1.734l-202.378 376.819c-2.621 5.253-10.445 8.721-14.811 8.721h-13.974c-6.987 0-14.811-6.090-15.698-13.964l-98.593-586.184c-1.734-11.373 6.12-19.217 16.595-19.217h102.948c8.721 0 15.698 6.987 16.595 13.964l38.383 269.535h1.734l147.421-282.612c2.642-5.243 9.598-9.608 14.821-9.608z" />
<glyph unicode="&#xe601;" glyph-name="uniE601" horiz-adv-x="967" d="M481.782 960l-481.782-169.55 76.13-631.214 406.161-223.236 408.255 226.262 76.106 631.188-484.871 166.55zM480.651 450.224h-87.861l87.861 208.415v-208.415zM480.651 872.999l-297.872-662.651 111.094 2.052 59.726 149.39h127.054v-372.455l-361.352 200.424-65.236 564.519 426.587 152.056v-33.335zM685.952 210.322l-65.391 151.467-139.906 0.137 0.226 88.138h101.178l-0.077 0.161-100.532 210.32-0.796 212.463v0.011l0.003-0.005 311.594-664.665-106.3 1.973z" />
<glyph unicode="&#xe602;" glyph-name="uniE602" d="M0 960v-1024h1024v1024h-1024zM557.657 161.329c0-99.637-58.417-144.985-143.685-144.985-77.044 0-121.661 39.87-144.351 87.893l78.328 47.421c15.116-26.82 28.867-49.493 61.927-49.493 31.614 0 51.557 12.369 51.557 60.465v327.191h96.223v-328.492zM785.018 16.165c-89.364 0-147.099 42.585-175.348 98.401l78.198 45.43c20.626-33.678 47.461-58.434 94.923-58.434 39.871 0 65.341 19.927 65.341 47.461 0 32.995-26.169 44.682-70.055 63.878l-24.056 10.321c-69.437 29.582-115.566 66.641-115.566 144.985 0 72.167 54.987 127.106 140.922 127.106 61.18 0 105.163-21.293 136.859-77.044l-74.93-48.112c-16.498 29.582-34.296 41.236-61.927 41.236-28.185 0-46.047-17.879-46.047-41.236 0-28.867 17.879-40.553 59.165-58.434l24.056-10.306c81.757-35.060 127.919-70.802 127.919-151.162-0.002-86.631-68.057-134.093-159.453-134.093z" />
<glyph unicode="&#xe603;" glyph-name="uniE603" d="M512-64c-282.667 0-512.001 229.335-512.001 512.001s229.334 511.999 512.001 511.999 512.001-229.334 512.001-511.999-229.334-512.001-512.001-512.001zM844 586.667l-60.666 60.001c-8.001 7.998-18.668 12.666-30 12.666-11.334 0-22-4.668-29.999-12.666l-272.001-271.335-150.668 150.666c-7.999 8.001-18.666 12.666-29.999 12.666s-22-4.665-30-12.666l-60.666-59.998c-8.001-8.001-11.999-19.334-11.999-30.667s3.999-22 11.999-30l241.333-241.334c7.999-7.997 19.334-12.666 30-12.666 11.334 0 22.666 4.668 30.666 12.666l362 362c8.001 8.001 11.999 18.668 11.999 30s-3.999 22.666-11.999 30.667z" />
<glyph unicode="&#xe604;" glyph-name="uniE604" horiz-adv-x="3689" d="M676.718 958.716h138.418l-360.146-898.446h-94.842l-360.149 898.446h140.986l266.581-670.303 269.152 670.303zM970.186 446.052h406.286v130.734h-406.286v252.488h415.255v129.442h-545.988v-895.878h547.269v129.45h-416.535v253.764zM2064.686 674.188c0 142.262-97.402 285.812-292.209 285.812h-326.825v-897.162h128.166v766.436h198.659c108.942 0 162.763-78.185 162.763-155.086 0-78.178-53.822-156.362-162.763-156.362h-151.238v-61.513l326.821-393.474h167.899l-283.248 337.077c153.798 26.909 231.976 147.387 231.976 274.273zM2745.227 960h-671.587v-130.726h271.709v-770.28h84.254c0.841 50.051 17.524 96.133 45.196 133.718v636.562h270.428v130.726zM3689.186 958.716h-260.449l-193.254-265.090-192.243 265.090h-261.74c82.025-114.066 228.132-317.846 324.257-449.863l-243.715-335.229c19.405-32.649 31.004-70.375 32.343-110.783h148.855l192.24 265.094 193.254-265.094h260.453c-85.862 119.198-228.121 314.005-324.257 446.012l324.257 449.863zM2662.091 174.1c-65.749 0-119.050-53.301-119.050-119.050s53.301-119.050 119.050-119.050c65.749 0 119.050 53.301 119.050 119.050s-53.301 119.050-119.050 119.050z" />
<glyph unicode="&#xe605;" glyph-name="uniE605" horiz-adv-x="2856" d="M570.519 415.809l-0.528-394.457c0-5.484-3.013-10.588-7.7-13.278-4.704-2.83-10.75-2.83-15.494 0l-151.371 86.623c-9.508 5.621-15.794 15.709-15.794 26.673v184.29c0 10.985-5.432 21.152-14.963 26.616l-63.931 37.101c-4.664 2.773-10.031 4.127-15.274 4.127-5.364 0-10.53-1.357-15.334-4.127l-64.125-37.101c-9.531-5.461-14.877-15.629-14.877-26.616v-184.29c0-10.965-6.301-21.001-15.869-26.682l-151.702-86.634c-4.707-2.83-10.573-2.848-15.297-0.017-4.827 2.69-7.691 7.76-7.691 13.244l-0.566 394.388c0 11.065 5.898 21.095 15.386 26.576l254.545 145.639c4.367 2.531 9.188 2.919 14.055 2.919 0.357 0 2.193 0 2.63 0 4.884 0 9.708-0.388 14.015-2.919l254.545-145.653c9.551-5.478 15.343-15.357 15.343-26.422zM2096.148 846.641v-732.814c0-10.985-5.318-21.132-14.832-26.636l-254.076-147.070c-9.519-5.492-21.107-5.492-30.626 0l-254.211 147.070c-9.511 5.501-14.62 15.649-14.62 26.636v293.979c0 10.985 5.112 21.132 14.632 26.625l253.956 146.958c9.508 5.481 21.215 5.492 30.726 0.011l63.805-36.732c3.33-1.925 7.674-1.925 11.005 0 3.316 1.922 5.738 5.481 5.738 9.319v390.641c0 5.449 2.373 10.496 7.069 13.258 4.707 2.759 10.056 2.819 14.82 0.169l151.334-84.561c9.739-5.432 15.28-15.711 15.28-26.853zM1907.645 311.372c0 2.742-2.211 5.284-4.581 6.66l-88.117 50.499c-2.382 1.377-5.321 1.377-7.703 0l-87.297-50.502c-2.373-1.377-3.662-3.919-3.662-6.66v-100.958c0-2.742 1.354-5.284 3.736-6.649l87.38-50.399c2.373-1.365 5.432-1.365 7.806 0l87.848 50.399c2.382 1.365 4.587 3.907 4.587 6.649v100.961zM2840.675 438.435l-252.954 146.901c-9.519 5.532-21.244 5.544-30.783 0.040l-254.308-146.958c-9.511-5.492-15.123-15.64-15.123-26.625v-293.899c0-11.053 5.698-21.252 15.297-26.716l252.854-144.148c9.331-5.324 20.707-5.384 30.095-0.169l152.982 85.046c4.855 2.702 7.863 7.794 7.891 13.338 0.040 5.544-2.916 10.676-7.723 13.438l-255.667 147.030c-4.784 2.742-7.223 7.834-7.223 13.338v92.104c0 5.492 2.425 10.576 7.189 13.315l79.474 45.963c4.744 2.742 10.479 2.742 15.223 0l79.346-45.963c4.764-2.742 7.272-7.826 7.272-13.315v-72.468c0-5.504 3.302-10.588 8.066-13.329 4.764-2.75 10.816-2.73 15.569 0.031l152.448 88.628c9.471 5.501 15.277 15.629 15.277 26.585v71.24c-0.003 10.953-5.721 21.092-15.2 26.593zM1318.565 439.991l-254.425 146.93c-9.508 5.492-21.138 5.492-30.646 0l-253.734-146.93c-9.519-5.492-14.558-15.64-14.558-26.625v-294.099c0-10.985 5.087-21.132 14.595-26.636l254.168-147.050c9.519-5.492 21.050-5.492 30.569 0l254.136 147.050c9.511 5.501 14.895 15.649 14.895 26.636v294.088c0.003 10.996-5.478 21.144-15 26.636zM2574.52 327.778c-1.825 1.057-4.076 1.057-5.901 0l-49.248-28.19c-1.825-1.057-3.376-3.002-3.376-5.115v-56.42c0-2.114 1.551-4.056 3.376-5.115l49.036-28.19c1.825-1.057 4.184-1.057 6.009 0l49.439 28.19c1.825 1.057 3.527 3.002 3.527 5.115v56.42c0 2.114-1.651 4.056-3.476 5.115l-49.388 28.19z" />
<glyph unicode="&#xe606;" glyph-name="uniE606" horiz-adv-x="1073" d="M411.429 392.412c0-50.090-10.916-90.697-24.381-90.697s-24.381 40.606-24.381 90.697c0 50.090 10.916 90.697 24.381 90.697s24.381-40.606 24.381-90.697zM828.954 960h-585.144l-243.81-390.095 97.524-633.905h173.715l-12.19 146.286h85.333l12.191-146.286h359.619l12.191 146.286h85.333l-12.191-146.286h173.715l97.524 633.905-243.809 390.095zM828.954 179.81h-585.144l-48.761 390.095 97.524 195.048h156.735l-10.449-73.142h195.046l-10.449 73.142h156.735l97.524-195.048-48.761-390.095zM719.239 399.97c0-50.090-10.916-90.697-24.381-90.697s-24.381 40.606-24.381 90.697c0 50.090 10.916 90.697 24.381 90.697s24.381-40.606 24.381-90.697z" />
<glyph unicode="&#xe607;" glyph-name="uniE607" horiz-adv-x="591" d="M590.77 960v-236.307c0 0 0-98.462-590.769-157.538v236.307c-0.001 0 590.769 59.077 590.769 157.538zM0 487.385v-236.307c590.769 59.077 590.769 157.538 590.769 157.538v236.307c0.001-98.462-590.769-157.538-590.769-157.538zM0 172.307v-236.307c590.769 59.077 590.769 157.538 590.769 157.538v236.307c0.001-98.461-590.769-157.538-590.769-157.538z" />
<glyph unicode="&#xe608;" glyph-name="uniE608" horiz-adv-x="867" d="M857.605 827.748c12.839-11.392 12.839-28.423 1.463-39.815l-110.915-115.204c-9.929-9.929-25.596-9.929-35.541 0-52.621 46.917-122.306 72.529-192.007 72.529-160.757 0-278.772-133.698-278.772-292.992 0-113.577 62.025-212.934 156.646-259.851l-62.287-225.609c-196.626 71.116-336.194 257.632-336.194 479.722 0 284.476 228.995 513.471 513.422 513.471 142.246-0.016 247.472-44.106 344.183-132.252zM749.552 230.372c-8.565 9.929-27.058 9.929-36.988 1.463-48.939-42.166-117.292-65.838-181.601-67.86l-44.353-227.285c8.861-0.477 17.852-0.69 26.845-0.69 126.596 0 248.903 44.089 345.646 137.973 9.929 9.929 11.392 28.423 1.463 38.401l-111.013 117.999z" />
<glyph unicode="&#xe609;" glyph-name="uniE609" horiz-adv-x="1692" d="M158.864 575.852c16.224 37.857 34.815 74.869 55.941 111.036s43.096 68.278 66.081 96.333c22.985 28.055 46.307 50.701 69.63 67.94 23.492 17.069 45.462 25.689 66.081 25.689 13.351 0 25.52-3.718 37.012-11.323 11.323-7.436 21.802-19.605 31.266-36.336 9.971-18.591 19.098-32.787 27.21-42.758s16.9-14.872 26.365-14.872c10.309 0 19.267 4.563 26.703 13.689s11.323 21.464 11.323 37.181c0 6.591-0.676 13.689-2.028 21.295-1.352 7.436-4.563 14.872-9.464 22.309-21.802 32.618-45.293 56.448-70.306 71.151s-51.039 21.971-77.911 21.971c-23.323 0-46.814-5.070-70.644-15.21-23.661-10.14-47.321-24.168-70.644-42.251-23.323-17.915-45.969-39.547-68.109-64.391-22.14-25.013-42.927-52.391-62.532-81.967-19.605-29.745-37.688-61.18-54.42-94.643-16.731-33.294-31.266-67.602-43.941-102.417-12.675-34.984-22.985-69.968-30.759-105.29s-12.675-69.63-14.365-103.262c-0.338-2.028-0.507-4.225-0.507-6.253s0-4.394 0-6.76c0-18.591 2.366-37.012 7.098-55.603s11.999-35.153 21.633-49.856c9.802-14.703 21.971-26.534 37.012-35.66 14.872-9.126 32.618-13.689 53.237-13.689 17.915 0 36.674 4.394 56.11 13.182s38.702 19.943 57.969 33.801c19.098 13.858 37.857 29.407 56.11 46.645s35.153 34.646 50.87 52.222c-5.239-16.393-11.323-34.984-17.915-55.772s-12.844-40.899-18.591-60.335c-5.746-19.436-10.647-36.843-14.872-52.222-4.056-15.379-6.422-25.858-6.591-31.435-0.338-2.704-0.507-5.408-0.507-7.774s0-4.901 0-7.267c0-16.731 2.197-28.224 6.422-34.646 4.225-6.253 11.154-9.464 20.619-9.464 5.577 0 10.985 2.028 16.393 6.084 5.239 4.056 10.14 9.126 14.534 15.21s8.281 12.506 11.492 19.436c3.211 6.76 5.577 13.013 7.098 18.591 0.507 1.69 2.197 7.267 4.901 16.731s5.915 21.126 9.971 35.153c4.056 14.027 8.45 29.576 13.52 46.814s10.309 34.984 15.717 52.898c5.408 17.915 10.816 35.66 15.886 52.898s9.971 32.956 14.365 46.814c4.394 14.027 8.112 25.52 11.323 34.815 3.042 9.295 5.239 14.703 6.422 16.562 5.239 15.379 10.816 30.083 16.393 44.279s10.647 28.224 15.21 42.251c4.563 14.027 8.281 28.224 11.323 42.927 2.873 14.703 4.394 30.421 4.394 47.152 0 6.253-1.014 11.83-2.873 16.562s-4.563 8.619-7.774 11.492-6.929 5.070-10.985 6.591c-4.056 1.352-8.281 2.028-12.337 2.028-8.619 0-16.9-2.873-25.013-8.45s-14.703-15.041-19.605-28.224l-41.068-123.204c-5.070-10.478-12.506-22.816-22.478-37.012s-21.464-28.9-34.477-44.279c-13.013-15.379-27.041-30.59-42.082-45.631s-30.083-28.393-44.955-40.392c-14.872-11.83-29.238-21.464-43.096-28.9-13.858-7.267-26.196-10.985-37.181-10.985-9.802 0-17.746 2.704-24.168 8.112s-11.323 12.337-15.041 20.619c-3.718 8.45-6.253 17.746-7.605 28.055s-2.028 20.281-2.028 30.083c0 29.407 4.732 62.532 14.365 99.375 9.633 37.181 22.647 74.531 38.871 112.557zM1685.992 450.113c-3.211 5.746-8.112 8.619-14.534 8.619-3.211 0-6.591-0.845-10.14-2.704-3.549-1.69-7.436-4.056-11.492-6.76-39.547-35.322-72.841-64.56-99.713-87.713-27.041-23.323-49.349-41.744-66.757-55.603-17.576-13.858-31.266-23.492-40.899-29.069-9.802-5.577-17.069-8.45-22.14-8.45-6.253 0-10.647 1.352-13.351 3.887-2.704 2.704-4.056 6.084-4.056 10.14 0.338 3.211 4.225 9.126 11.661 18.084 7.605 8.957 16.731 19.774 27.886 32.449 10.985 12.675 22.985 26.872 35.66 42.42s24.506 31.604 35.322 47.997c10.985 16.393 19.943 32.787 27.21 49.011s10.816 31.604 10.816 45.8c0 10.816-2.366 20.281-7.098 28.562s-10.816 15.041-18.422 20.45c-7.436 5.408-16.055 9.464-25.689 12.337s-19.267 4.225-28.9 4.225c-14.196 0-28.393-3.042-42.42-8.957-14.196-5.915-28.055-13.689-41.575-22.985-13.52-9.464-26.703-19.943-39.378-31.773-12.675-11.661-24.506-23.492-35.322-35.322 0.845 2.028 1.859 5.408 2.873 9.971s2.028 9.295 2.873 14.365c0.845 5.070 1.69 9.802 2.197 14.365s0.845 7.774 0.845 9.971c0 10.478-2.704 18.422-7.943 23.83s-13.858 8.112-25.689 8.112c-7.605 0-14.872-4.056-21.464-12.337s-12.675-17.915-17.915-29.069c-5.239-11.154-9.971-22.478-14.196-34.139-4.056-11.492-7.436-20.45-9.802-26.703-4.056-14.196-8.45-28.731-13.52-43.603-2.535-1.014-4.901-2.535-6.929-4.563-8.281-8.45-17.576-17.576-28.055-27.548s-21.464-19.943-32.956-29.914c-11.492-9.971-23.154-19.605-34.646-28.9-11.661-9.295-22.816-17.407-33.632-24.675-10.816-7.098-20.788-12.844-30.083-17.238s-17.069-6.591-23.154-6.591c-5.070 0-8.45 1.521-10.14 4.732s-2.704 7.267-2.704 12.506c0 8.45 1.521 17.915 4.563 28.562s6.253 19.943 9.464 28.055c7.436 18.929 16.224 41.068 26.365 66.757s21.126 52.898 32.787 81.46c11.661 28.731 23.661 58.138 35.829 88.22 12.168 30.252 24.168 59.321 35.829 87.206s22.647 53.744 32.787 77.573c10.14 23.661 18.929 43.772 26.365 60.335 3.887 8.112 6.929 15.548 9.464 22.478s3.718 13.689 3.718 19.943c0 13.351-3.718 22.816-11.323 28.9-7.605 5.915-15.886 8.957-25.013 8.957s-18.253-2.873-27.21-8.45c-8.957-5.577-16.224-15.21-21.464-28.9l-134.021-338.010c-8.788-22.309-18.591-46.983-29.238-73.855s-21.126-53.913-31.435-81.291c-5.746-14.365-10.647-30.252-14.703-47.49-3.718-3.042-7.436-6.084-11.154-8.788-14.872-11.323-29.069-20.112-42.758-26.534-13.52-6.253-24.844-9.464-34.139-9.464-13.013 0-19.436 6.253-19.436 18.929 0 13.689 2.028 28.393 5.915 44.279 4.056 15.886 8.957 32.111 15.041 48.673s12.675 32.956 19.605 49.011c7.098 16.055 13.689 31.266 19.605 45.293 6.084 14.196 10.985 26.703 15.041 37.688s5.915 19.605 5.915 25.858c0 11.154-3.042 20.788-9.295 28.9-6.253 7.943-14.534 11.999-25.182 11.999-9.802 0-17.915-3.887-24.337-11.492s-12.168-17.238-17.238-28.9c-5.070-11.492-9.633-24.168-13.858-37.688-4.225-13.689-9.295-26.365-14.872-38.195-7.943-17.746-17.915-37.519-29.914-58.983s-25.351-41.575-40.054-60.335c-14.703-18.76-30.759-34.308-48.166-46.814-16.9-11.83-35.153-18.084-54.251-18.084-6.76 0-11.661 2.704-14.534 7.943s-4.394 10.985-4.394 17.238c0.507 15.041 3.042 30.421 7.436 46.307s9.802 31.435 15.886 46.814c6.084 15.548 12.844 30.252 20.112 44.617s14.027 27.717 20.619 40.054c6.422 12.337 12.168 23.492 17.069 32.956 4.901 9.633 8.112 17.407 9.464 23.323 0.845 3.042 1.352 6.422 1.352 9.971 0 5.239-1.183 9.802-3.549 13.858s-5.408 7.267-9.295 9.971c-3.887 2.704-7.943 4.563-12.337 5.746s-8.619 1.859-12.844 1.859c-9.464 0-18.253-2.873-26.365-8.619s-15.21-15.21-21.464-28.562c-24.168-50.363-42.927-93.122-56.11-128.444-13.351-35.322-23.154-64.053-29.407-86.192-6.422-22.14-10.14-38.364-11.323-48.673s-1.69-15.717-1.69-16.055c0-15.041 2.028-27.548 6.253-37.519 4.056-9.971 9.633-17.915 16.393-23.83s14.703-10.14 23.661-12.506c8.957-2.366 18.422-3.718 28.055-3.718 21.464 0 41.406 3.549 59.659 10.816 18.253 7.098 34.815 16.562 49.518 28.055s27.886 24.337 39.378 38.195c11.492 14.027 21.126 27.717 28.731 41.406-4.732-21.295-7.098-40.054-7.098-56.11 0-22.647 4.394-38.871 13.351-48.166 8.788-9.464 20.281-14.196 34.477-14.196s30.083 3.887 47.828 11.83c17.746 7.943 35.66 18.253 53.913 31.097 5.239 3.718 10.309 7.605 15.548 11.492 0.507-3.211 1.014-6.422 1.69-9.464 2.028-9.126 5.577-16.9 10.478-23.661 4.901-6.591 11.323-11.83 19.436-15.717s18.253-5.746 30.252-5.746c17.746 0 35.829 4.225 54.589 12.506 18.76 8.45 37.688 19.605 56.617 33.801 19.098 14.196 38.026 30.421 57.293 49.011 1.014 1.014 1.859 1.859 2.873 2.873-3.042-7.098-6.253-14.196-9.295-21.464-15.21-34.477-31.097-69.123-47.49-104.276-16.562-35.153-32.787-70.137-48.673-105.121-2.366-6.253-4.901-12.844-7.774-19.605s-5.577-13.858-8.112-20.957c-2.704-7.098-4.901-14.365-6.591-21.802-1.69-7.267-2.704-14.534-2.704-21.464 0-14.365 3.549-23.999 10.478-29.069s15.717-7.605 26.365-7.605c8.281 0 15.717 1.859 22.309 5.577s12.506 8.619 17.746 14.703c5.239 6.084 9.802 13.182 13.689 21.295 4.056 8.112 7.436 16.562 10.478 25.689 0.845 3.211 2.873 9.126 6.253 17.746 3.211 8.788 6.929 18.929 11.323 30.421 4.225 11.492 8.788 23.83 13.689 36.674s9.464 25.182 13.858 37.012c4.394 11.661 8.281 21.971 11.661 30.59 3.38 8.788 5.746 14.703 7.267 17.746 1.183 2.366 3.211 6.929 5.915 13.351 2.873 6.422 5.915 13.858 9.464 21.971 3.549 8.281 7.436 16.9 11.661 26.196s8.281 18.253 12.168 27.041c3.887 8.788 7.436 16.562 10.647 23.661 3.211 6.929 5.746 12.337 7.605 16.224 5.915 12.168 13.013 25.52 21.464 40.054s17.746 28.9 27.886 43.265c10.14 14.365 21.126 28.055 32.787 41.406s23.661 25.013 35.829 35.322c12.168 10.309 24.675 18.591 37.181 24.675s24.675 9.126 36.505 9.126c6.76 0 11.661-1.183 14.534-3.718s4.394-5.746 4.394-9.971c0-6.929-3.549-16.055-10.647-27.21s-16.055-23.492-26.703-37.012c-10.816-13.52-22.478-27.717-35.153-42.758s-24.675-29.914-35.829-44.617-20.788-28.9-28.731-42.42c-7.943-13.689-12.506-25.689-13.689-36.167-0.338-1.69-0.507-3.211-0.507-4.394s0-2.535 0-3.887c0-17.069 6.084-30.59 18.422-40.392 12.168-9.802 29.576-14.703 52.053-14.703 23.83 0 46.307 4.563 67.264 13.689s42.42 21.971 64.391 38.533c21.971 16.562 45.293 36.505 70.137 59.49 24.675 22.985 52.898 48.504 84.502 76.559 7.943 6.253 13.858 14.196 17.915 23.661s5.915 18.76 5.915 27.717c-0.338 8.788-1.859 15.717-5.239 21.633z" />
<glyph unicode="&#xe60a;" glyph-name="uniE60A" horiz-adv-x="1947" d="M1441.192 593.424h-76.508l-41.856-214.729h67.942c44.97 0 78.649 8.566 100.648 25.503s36.989 45.36 44.581 85.074c7.398 38.157 4.088 65.022-10.123 80.791-14.017 15.574-42.245 23.361-84.684 23.361zM568.651 593.424h-76.508l-41.661-214.729h67.942c44.97 0 78.649 8.566 100.648 25.503s36.989 45.36 44.581 85.074c7.398 38.157 4.088 65.022-10.123 80.791-14.017 15.574-42.44 23.361-84.879 23.361zM973.384 960c-537.503 0-973.384-229.329-973.384-512s435.881-512 973.384-512 973.384 229.329 973.384 512-435.687 512-973.384 512zM709.013 355.529c-22.388-20.83-47.112-35.821-74.367-44.581-27.255-8.955-62.102-13.238-104.347-13.238h-95.781l-26.476-136.468h-111.744l99.869 513.168h214.923c64.633 0 111.744-16.937 141.53-51.005 29.591-33.874 38.546-81.375 26.671-142.114-4.867-25.113-13.043-47.89-24.724-68.721s-26.671-39.714-45.554-57.040zM1035.291 297.71l44.192 226.993c5.062 25.892 3.115 43.413-5.451 52.757-8.76 9.344-27.255 14.017-55.678 14.017h-88.773l-57.040-293.962h-110.966l99.869 513.363h110.966l-26.476-136.468h98.701c62.102 0 105.125-10.902 128.681-32.511s30.759-56.846 21.22-105.32l-46.333-238.868h-112.913zM1651.833 481.29c-4.867-25.113-13.043-47.89-24.724-68.721s-26.671-39.714-45.554-57.040c-22.388-20.83-47.112-35.821-74.367-44.581-27.255-8.955-62.102-13.238-104.347-13.238h-95.781l-26.476-136.468h-111.744l99.675 513.168h214.923c64.633 0 111.744-16.937 141.53-51.005 29.591-33.874 38.546-81.18 26.865-142.114z" />
<glyph unicode="&#xe60b;" glyph-name="uniE60B" horiz-adv-x="878" d="M877.773 813.67v-73.114c0-80.589-196.608-146.33-438.886-146.33s-438.886 65.741-438.886 146.33v73.114c0 80.589 196.608 146.33 438.886 146.33s438.886-65.741 438.886-146.33zM877.773 618.291v-97.178c0-80.589-196.608-146.33-438.886-146.33s-438.886 65.741-438.886 146.33v97.178c94.31-66.253 266.854-97.178 438.886-97.178s344.576 30.925 438.886 97.178zM877.773 398.848v-97.178c0-80.589-196.608-146.33-438.886-146.33s-438.886 65.741-438.886 146.33v97.178c94.31-66.253 266.854-97.178 438.886-97.178s344.576 30.925 438.886 97.178zM877.773 179.405v-97.178c0-80.589-196.608-146.33-438.886-146.33s-438.886 65.843-438.886 146.33v97.178c94.31-66.253 266.854-97.178 438.886-97.178s344.576 30.925 438.886 97.178z" />
<glyph unicode="&#xe900;" glyph-name="jenkins" horiz-adv-x="704" d="M579.844 192.244c19.686-1.302 33.84 18.384 54.015 22.289-24.404-0.651-43.277-6.996-54.015-22.289zM590.256 180.042c16.595-1.302 35.956 1.302 52.388 3.091-14.154 4.881-44.416 8.948-52.388-3.091zM589.443 157.265c17.571-1.464 40.511-1.79 58.895-1.464-12.039 5.694-48.483 12.69-58.895 1.464zM181.73 651.368c-5.694 1.952-11.714 1.952-16.758-0.651-1.302-0.651-2.44-1.302-3.417-2.44-3.905-3.417-6.833-8.786-7.972-16.758 0.976 0.651 1.79 1.464 2.603 2.278 3.254 3.254 6.67 7.647 12.69 4.718-6.833-13.178-5.206-38.884 4.067-47.344 0 15.619-2.44 42.463 10.901 41.65 9.436-0.651 11.226-20.662 19.198-25.218 5.044 22.452-7.484 39.047-21.313 43.765zM467.259 325.816c0-3.954-3.205-7.159-7.159-7.159s-7.159 3.205-7.159 7.159c0 3.954 3.205 7.159 7.159 7.159s7.159-3.205 7.159-7.159zM474.418 292.627c0-3.954-3.205-7.159-7.159-7.159s-7.159 3.205-7.159 7.159c0 3.954 3.205 7.159 7.159 7.159s7.159-3.205 7.159-7.159zM675.345 236.985c-4.718 9.924-11.551 16.107-19.686 19.361 30.912 53.527 48.646 116.001 48.646 182.543 0 99.244-39.372 189.377-102.986 254.454-2.603 2.603-5.206 5.044-7.972 7.484-0.325 5.857-0.813 11.551-1.464 17.408 0.813 0.488 1.627 0.813 2.44 1.302 6.508 3.742 12.202 8.297 19.198 15.293l0.651 0.651 0.488 0.813c8.623 16.92 9.762 25.055-0.325 39.372-2.603 4.718-7.484 9.599-14.154 14.48-0.813 0.651-1.627 1.139-2.44 1.627 0.976 5.206 2.115 11.877 3.579 20.174 12.365 22.94 17.896 37.745 13.992 53.038-3.905 15.456-21.313 44.741-44.741 59.384-19.035 12.202-61.987 34.491-87.855 35.63-41.813 0-119.581-5.044-155.861-27.17-27.495-16.595-72.236-54.015-107.704-83.3-11.226-11.063-55.642-40.836-81.185-61.661-25.38-20.825-25.055-14.317-43.765-55.967-9.436-22.94-10.25-24.892 7.159-40.186-62.637-64.915-101.359-154.235-101.359-252.827 0-99.244 39.372-189.377 102.986-254.454 7.159-7.321 14.48-14.154 22.289-20.825 0.488-7.159 0.976-14.317 1.464-21.638 0.976-15.781-0.651-32.702 3.417-41.487 4.23-9.111 20.011-11.877 31.4-17.246 32.864-15.131 67.681-38.396 110.795-33.84 10.25-34.491 20.011-71.26 32.214-101.521 44.090-15.944 113.886-13.341 159.766-7.809 13.992 1.627 28.634 8.623 31.888 20.662-0.976 7.484-2.115 14.805-1.627 23.591 14.317 2.929 33.84 5.369 37.094 21.313 4.393 22.289-13.992 54.177-7.972 78.582 8.297 2.766 17.246 4.881 15.781 17.896 13.992 7.321 30.587 8.948 48.32 8.297 2.278-4.393 5.532-8.623 8.46-11.063 24.892-5.044 48.808-5.369 69.471 1.302 23.265 7.647 34.491 55.316 29.122 78.093-3.579 16.269-12.202 42.626-19.523 58.245zM593.673 670.404c55.479-60.522 89.319-141.87 89.319-231.514 0-65.891-18.384-127.227-50.11-179.289-23.428-1.302-50.11-13.666-68.006-22.615 15.293 40.348 28.472 81.998 41.975 127.227 4.067 13.504 12.039 37.094 15.293 69.145-12.039 15.619-21.313 15.619-36.444 18.873-28.146 11.714-43.114 12.853-44.741 20.825-1.627 7.647 18.873 35.63 23.103 44.416 6.020 12.527 10.25 27.821 13.341 38.233 8.948 37.908 15.293 76.466 16.269 114.7zM271.863 387.64l-6.67 10.412-0.813 0.325c-2.44 3.579-4.718 6.833-6.67 9.762l-4.23 8.297c-2.115 4.718-1.627 8.623 1.627 11.877v0c9.762-7.647 43.439-11.063 59.709-13.829 0.325-2.44-0.976-7.159-1.952-13.016-0.813-5.044-1.79-10.901-1.79-17.246 0-0.488 0-1.139 0-1.79l-0.488 0.163-1.464-5.857c-2.603-2.929-6.182-10.738-12.202-23.265-10.412 18.873-12.69 21.313-25.055 34.166zM286.343 320.935l-0.325-14.48-1.79-2.44 0.325 16.92h1.79zM280.811 320.935l-0.651-15.293-3.254-6.508-3.579-0.163-3.905 6.67-0.651 14.48 6.020 0.976h6.020zM242.252 290.512c9.762 0 12.853-3.579 12.527-12.527-0.325-9.111-1.302-11.226-11.389-12.365-12.039 0.813-13.016 3.254-13.666 11.714-0.488 8.623 4.718 13.016 12.527 13.178zM228.586 315.078l2.278 0.976 0.488-13.992-1.627 0.976-1.139 12.039zM235.256 315.892l6.345 1.302 6.182-0.163-0.813-16.758-3.417-4.881-3.579-0.163-3.742 5.044-0.976 15.619zM251.363 297.507l0.651 16.758h2.278l-1.139-14.805-1.79-1.952zM314.001 323.051l-0.325-12.527-3.091-8.135-3.579-0.163-3.579 7.321-0.976 13.016 6.020 0.813 5.532-0.325zM299.033 307.106l-1.79 1.79-1.139 12.039h1.952l0.976-13.829zM309.608 298.158c9.762 0 12.202-4.881 13.178-13.016 0-7.321-3.742-11.551-11.877-13.341-7.321-1.464-14.48 3.417-14.968 12.039-0.488 8.297 5.857 14.154 13.666 14.317zM318.068 310.035l0.163 14.154h1.952l-0.813-13.178-1.302-0.976zM318.719 425.223c-12.202 0.813-24.241 1.79-35.142 3.742-19.035 3.579-35.305 10.087-45.392 24.567-0.813 1.139-1.464 2.278-2.278 3.417l17.734-7.647h0.976l1.627 0.163 7.647 0.325 9.762 0.325v0.488l29.773 1.79 25.38 4.718c9.924-9.762 20.988-18.71 32.376-23.103-14.317 2.929-36.444 4.067-42.463-8.786zM229.237 472.73l6.345-15.456c-11.714 18.222-23.103 46.205-28.472 68.332-1.139 4.881-3.091 15.131-2.603 17.734 1.79 10.087 19.361 14.48 13.178 28.146-0.163 0.325-0.163 0.488-0.325 0.813-13.178 0.163-16.107-12.039-28.309-13.178-13.178-1.302-24.73 5.857-33.678 16.595-12.202 14.805-19.361 36.281-18.384 51.9 1.139 22.94 20.662 44.904 47.181 41.975 9.762-1.139 16.107-6.996 20.5-15.131h-0.163l2.929-6.182c1.139-2.766 2.115-5.694 2.929-8.623 0.976-3.579 1.79-7.321 2.603-10.901 10.738-0.651 26.357 0.488 31.563 8.948-0.325 7.321-1.627 13.992-3.254 20.5l12.365 6.020 46.205 17.896c3.742-11.063 7.972-22.126 14.48-31.725 11.714-15.944 15.944-17.734 31.725-22.777 34.491-7.484 62.963-2.44 88.831 9.762 13.504 10.25 16.758 20.825 21.15 42.138l0.163 1.464 17.408 4.393c8.786-21.313 25.055-39.86 38.396-55.804 9.436-11.389 20.988-18.059 10.412-35.793-14.805-5.694-37.908-20.5-59.221-21.476-3.091-0.163-6.020 0-8.948 0.488-8.135 1.464-9.762 7.809-11.226 14.317-0.651 2.766-1.139 5.369-2.115 7.809 0 0.163-0.163 0.325-0.163 0.488-0.163 0.488-0.488 0.976-0.813 1.464-0.488-0.651-0.976-1.464-1.464-2.278-4.555-7.647-4.393-17.408-1.139-25.055-7.159-1.627-13.504-4.23-18.71-6.996-11.389-6.182-16.269-17.571-24.73-24.567-14.48-9.436-37.094-12.039-46.043-9.762-11.063 4.555-16.269 12.69-18.222 20.988-1.627 13.992 15.131 34.166 15.131 34.166s-28.96-15.619-27.333-38.396c0.976-13.016 7.484-24.567 13.504-28.797 5.694-4.067 14.48-6.345 24.079-7.647l0.488-0.651-6.996 1.302-48.971 0.813-2.115-0.325c-4.555 6.020-8.948 12.365-13.666 18.71 0.325-7.159 2.115-13.992 5.044-20.337l-44.904-8.297-5.044-1.302-9.111-2.278-0.488-23.428zM558.205 565.14c-3.742-9.599-9.111-15.456-17.246-18.384-12.69 3.742-10.738 9.599-17.246 21.638-3.579 3.905-6.508 6.182-9.436 7.484 8.623 4.555 16.758 9.762 24.404 14.643-0.813 4.881 3.905 12.527 5.369 20.174 0.488 2.603 0.488 5.044 0 7.484-0.813 3.254-8.46 8.135-13.016 13.178-5.044 5.532-10.738 11.877-16.269 18.547 22.615-4.881 53.689 1.464 61.010 23.428 1.79 6.182 2.766 16.107 3.417 25.38 0.163-4.881 0.488-9.924 0.651-14.968 1.952-37.908-2.278-76.629-12.365-111.771-1.79 15.456-12.202 24.892-12.202 24.892s8.297-17.734 2.929-31.725zM519.647 422.457c3.254-1.952 6.020-7.647 7.809-14.643 2.603-9.599 3.905-21.313 4.23-28.797 0.488-10.575-0.976-21.15-5.206-26.682-19.849 0.651-38.071 2.766-54.177 6.833-1.79 0.488-3.579 0.813-5.206 1.464 1.139 7.159-0.976 14.154 0.813 19.361 4.881 3.579 13.016 3.417 20.337 4.23-6.345 3.091-15.293 4.393-22.615 2.603-0.163 5.044-2.766 7.972-4.067 11.877 16.595 7.321 29.448 22.452 47.344 25.543v0c9.599-0.488 5.206 0.488 10.738-1.79zM447.573 403.259c-19.686-0.976-30.424 1.302-45.066 12.69 0.163 0.976 1.627 0.488 1.79 1.627 20.825-9.274 47.344 3.579 68.494 5.694 0.325 0 0.488 0 0.813 0.163-1.952-1.302-3.742-2.603-5.694-4.067-6.833-5.206-13.178-10.901-20.337-16.107zM433.418 364.375c-0.488 2.766-0.976 4.881-1.464 6.996-1.464 6.020-2.44 9.436-1.79 16.758 3.417 2.115 6.996 4.067 11.226 4.393 0.325 0 0.488 0.163 0.813 0.163v0c22.452-3.417 12.527-37.582-8.786-28.309zM388.189 435.961c-17.896 6.020-32.376 13.992-44.904 23.591l37.257 6.996 7.647-2.766c14.643 4.393 26.194 10.412 37.257 16.595l22.777 12.69 17.408 11.389c7.972 1.79 11.877 1.302 16.432 1.139l9.274-3.254 20.825-17.408 8.135-0.813 1.627 17.734 8.786 15.131c9.436 0.976 13.992 3.579 16.92 5.857-4.23-8.135-8.786-15.944-13.992-23.265-8.948-12.853-16.595-27.007-29.122-35.956-30.261-21.638-76.629-40.999-116.327-27.658zM313.187 494.693l-14.48 10.087h18.547l9.599-1.302 15.619-11.551 8.135-14.805-5.532-11.714-23.103-5.044 0.976 19.523-9.762 14.805zM280.323 490.789l-11.877 7.647 18.384 3.579 18.222-10.901 11.063-13.016-0.976-17.734-22.94-3.742 0.163 19.198-12.039 14.968zM372.896 487.209l4.393-14.317-21.476-5.532 1.139 15.619-7.321 12.365-11.226 9.436 16.432-1.302 11.551-5.694 6.508-10.575zM370.13 502.015l11.714-1.627c2.603-2.115 5.532-3.579 8.46-4.393l5.206-4.393 1.139-12.853-11.714-2.603-3.417 14.317-11.389 11.551zM487.108 542.688c0-1.464 1.627-4.881 9.436-12.365 1.952-1.79 3.417-3.254 4.881-4.555l-12.527-1.302-11.877 0.163c5.532 6.833 8.948 15.131 10.087 18.059zM480.437 562.862c3.091 0.651 6.182 1.627 9.274 2.44-4.067-4.23-4.067-7.159-4.067-7.159s-1.952 2.115-5.206 4.718zM510.536 506.082c0.488 0.163 0.976 0.488 1.302 0.813v-0.813h-1.302zM333.849 416.925c1.79 0.976 4.067 1.139 6.020 1.627l3.742-0.325c17.571-3.417 37.908-11.389 51.574-18.873 8.297-4.555 13.016-10.087 25.706-11.063 0-1.627-0.163-3.417-0.163-5.044-6.833-4.555-18.059-4.555-25.543-8.297 11.226-0.488 19.849-3.254 27.495-6.996 0-0.488 0-0.976 0-1.464-0.163-3.742-0.325-7.484-0.488-11.226-12.69-8.623-24.241-21.476-39.047-29.61-6.996-3.905-31.725-13.666-39.209-12.039-0.651 0.163-1.302 0.488-1.79 0.813-1.79 1.302-2.603 3.579-3.254 6.345-0.325 1.302-0.813 2.603-1.139 4.067-0.163 0.651-0.488 1.302-0.651 1.952-3.905 10.575-11.226 26.519-11.877 41.487-0.813 11.877-4.067 41.324 8.623 48.646zM411.943 330.697h-0.813v0.813c22.777-27.007 34.654-61.824 48.971-95.339-33.678 10.087-68.006 26.194-97.454 42.951 5.694 25.055 28.634 38.559 49.296 51.574zM423.331 341.11c2.44 2.603 4.718 5.206 6.996 7.809 10.575-4.393 17.408 6.182 25.38 4.555v0c9.274 0 16.595-13.341 29.773-12.527-0.325-5.044-0.488-9.924-0.813-14.968-1.139-26.031-1.627-51.737-7.321-76.141-0.813-3.091-1.627-6.182-2.44-9.274-17.734 32.864-28.309 72.562-51.574 100.545zM495.731 339.971c5.857 2.115 3.417 1.464 9.599 2.603 13.992 1.464 25.543-7.484 31.563-17.246-4.23-7.321-8.46-15.293-12.527-23.265-13.341-22.94-26.845-45.717-42.789-65.891 8.948 26.194 12.853 70.284 14.154 103.799zM509.071 440.516c5.044 7.484 14.48 11.063 20.988 20.174v0c3.254-2.115 4.718-3.579 6.996-4.881l12.039-29.448 5.206-27.007-12.365 11.714c-4.23 21.964-14.805 38.233-32.864 29.448zM550.233 440.353l-4.23 11.389c7.321-2.44 14.643-3.579 25.055-9.762 17.896-5.044 26.194-7.809 30.261-11.714l-35.793 5.857-15.293 4.23zM438.625 896.874c14.968 6.182 48.158 8.786 66.379-5.694 8.948-10.087 12.365-16.758 9.274-36.281-2.278-8.948-4.555-16.758-6.508-23.265-12.69 1.139-25.38 0.651-47.67-2.278-11.389-1.464-22.289-3.254-32.864-5.044-4.881 7.647-9.436 14.154-11.714 23.916-6.508 28.797 7.321 38.559 23.103 48.646zM203.043 732.39c39.209 24.73 90.621 44.578 131.132 58.733 29.936 10.575 68.82 18.873 98.756 24.079 10.412 1.79 19.849 3.254 27.333 4.23 17.083 2.115 29.448 3.254 44.578 2.603 10.25-0.488 21.638-1.952 36.769-4.393 28.472-4.881 42.463-10.25 47.344-12.527-0.488-2.603-1.139-4.881-1.79-6.996-0.163 0-0.325 0.163-0.488 0.163-16.107 6.345-30.099 11.877-65.891 11.877-39.697 0-69.959-2.44-98.105-7.809-37.094-8.786-64.915-16.595-87.855-24.73l-33.352-11.714c0 0 134.548 42.951 232.165 32.376 33.19-3.579 32.864-5.532 48.32-11.551l0.488-0.325c1.79-0.813 6.020-3.091 10.25-6.182 5.206-3.742 8.948-7.321 10.575-10.575l0.488-0.651c6.508-9.111 7.159-11.714 0-26.031-5.857-5.694-10.575-9.599-15.781-12.527-7.972-4.718-18.222-8.135-35.142-12.039-3.579-0.813-7.159-1.627-10.412-2.44-23.103-5.532-39.86-9.436-73.701-12.69l-2.115-0.163c-3.254-0.325-6.67-0.488-10.25-0.813-5.694-0.325-12.202-0.488-19.523-0.651-3.579-0.325-7.159-0.325-10.901-0.488-0.163 0-0.325 0-0.325 0-3.091-0.163-6.345-0.163-9.436-0.163-1.302 0-2.766-0.163-4.067-0.163 0 0-2.115-0.488-2.603-0.651-3.254-0.813-6.345-0.651-9.274 0.325l-14.968-5.369c-9.436 0.163-18.71 0-27.658 0 0 0 0 0 0 0-1.464 0-2.766 0.651-4.23 0.651-0.651 0-1.302 0.325-1.79 0.325-1.464 0-3.091 0.163-4.555 0.163-1.139 0-2.278 0.163-3.254 0.163-0.651 0-1.302 0-1.952 0-0.976 0-1.952 0-2.929 0-0.651 0-1.302 0-1.952 0-1.139 0-2.278 0-3.254 0-0.488 0-0.976 0.813-1.464 0.813-1.464 0-2.929 0.813-4.393 0.813-0.325 0-0.651 0-1.139 0-1.139 0-2.115-0.813-3.254-0.813-0.488 0-0.976-0.325-1.464-0.325-0.976 0-1.952-0.163-2.766-0.163-0.488 0-0.813-0.163-1.302-0.163-1.302 0-2.603-0.163-3.742-0.163-3.579-0.163-7.321-0.163-11.551 0-2.278 0-4.718 0-6.996 0.163-0.651 0-1.464 0-2.278 0-1.79 0-3.579 0.163-5.532 0.163-0.813 0-1.464 0-2.278 0.163-2.44 0.163-5.044 0.163-7.647 0.325-0.163 0-0.325 0-0.325 0-2.44 0.163-5.044 0.325-7.484 0.488-0.813 0-1.627 0.163-2.44 0.163-1.952 0.163-3.742 0.163-5.694 0.325-0.813 0-1.627-0.325-2.44-0.163-2.603 0.163-5.044 0.163-7.484 0.163 0 0 0 0 0 0-2.603 0-5.044 0.651-7.484 0.976 2.44-0.163 4.881-0.163 7.484-0.325-12.202 5.044-21.313 11.226-26.194 18.059-7.972-5.044-14.317-9.274-18.059-11.714-12.039-5.206-7.647-1.627-27.007-15.781-8.786-0.325-18.059-2.766-26.845-5.044-10.25-3.254-18.059-8.46-21.638-10.901 10.738 12.365 39.697 41.324 70.772 58.895zM118.279 199.24c-49.459 50.598-83.3 116.977-93.712 191.329-2.278 15.781-3.417 32.051-3.417 48.483 0 91.434 35.467 174.409 93.061 235.419 3.905-5.857 7.484-11.389 9.924-15.293-1.79-5.206-3.091-10.575-3.742-16.107-3.742-28.309 5.694-59.384 18.384-77.768 9.436-13.992 25.218-26.357 46.043-29.61 0.813-12.365 3.742-23.103 9.599-35.793 3.417-7.647 22.94-34.979 20.174-46.043l-25.706-10.25-11.551-7.972c-10.412-4.067-19.523-7.484-22.452-9.274-19.849-4.23-15.619-0.976-45.88-5.206-15.619-0.976-41.162-22.289-37.42-46.856 2.44-16.595 15.131-41.65 20.662-58.245 5.857-17.896 14.154-34.329 19.035-53.038 6.020-23.265 9.274-45.88 11.551-68.169-1.627 1.464-3.091 2.929-4.555 4.393zM155.861 113.174c-3.091 1.464-6.020 2.929-9.111 4.393-2.44 87.53-20.825 183.682-55.479 257.708 0.325 3.417 0.976 6.508 1.79 9.274 8.786-1.302 24.567-4.718 40.999-13.504l-5.369-2.278c0-0.163 46.043-181.567 27.17-255.593zM132.922 384.224c-8.786 4.393-23.265 9.762-31.075 12.69 4.555 2.766 10.738 3.742 19.523 3.417 17.734 9.436 71.911 20.662 102.823 33.19v0c3.254 0.813 8.786-6.67 14.48-13.016-6.508-2.929-23.265-10.25-44.578-17.734-35.793-9.924-51.249-27.983-61.173-18.547zM214.106 184.435l-7.159 14.154c13.504-1.464 39.697 0.976 52.388-4.393 0.488-5.369 0.976-10.575 1.464-15.781l-46.693 6.020zM263.891 318.983l0.976-14.968-1.627 1.627-1.302 12.69 1.952 0.651zM262.589 281.401c-0.488 8.46 5.369 13.178 13.178 13.504 9.762-0.813 13.341-3.417 13.178-12.365-0.325-9.111-1.627-12.039-12.039-13.178-11.714-1.302-13.666 3.579-14.317 12.039zM397.626-43.338c-28.146 0.651-56.78 5.044-82.974 13.016-23.916 73.375-36.932 143.009-46.043 225.82 44.416 7.972 89.319 13.666 134.386 13.178 14.48-0.651 28.96-0.976 43.277-2.929 5.206-0.651 10.412-1.627 15.619-2.766 5.206-33.84 3.254-67.356 6.996-100.545 5.044-44.253 1.302-94.526 9.924-136.013-23.916-7.159-52.225-10.412-81.185-9.762zM475.068 174.022c-0.163 9.599-0.488 19.035-0.488 28.634 9.599 3.254 17.896 3.091 27.658 3.091v0c3.254-6.996 3.742-14.48 5.044-22.289-8.297-4.718-21.313-10.901-32.214-9.436zM514.115 9.863c-3.417-1.139-6.508-2.278-9.436-3.254-5.694-1.952-11.389-3.254-20.337-3.091-0.976 21.476-3.742 54.177-2.929 74.677 0 0.163 0 0.163 0 0.325 6.833 0.163 13.016 3.091 19.849 3.579l2.278-0.325c2.603-22.94 11.714-46.531 10.575-71.911zM487.108 224.946c20.5 35.63 42.951 69.308 62.963 105.426-3.091 7.159-10.575 10.25-12.853 18.222 5.532 10.575 7.972 29.773 6.508 48.158l18.059-5.857-0.813 11.714-4.718 19.035 48.483-8.297c-2.603-12.853-10.738-37.42-11.877-43.277-6.345-31.563-20.825-73.375-34.491-106.565-5.044-12.039-9.762-27.007-16.269-29.61-17.896-7.321-39.697 0.488-54.991-8.948zM559.67 122.773c-7.972-1.627-13.178-6.182-22.94-5.857-0.488 5.857-1.139 11.714-1.952 17.571-3.091 24.892-8.135 50.435-10.575 73.863 8.297 0.488 3.254 0.163 15.131 0.651l5.044-0.651c9.762-16.758 13.666-41.813 14.805-64.59 0.651-7.321 0.651-14.48 0.488-20.988zM649.477 112.524c-14.805-3.579-37.42-4.555-47.181 0.163 11.877 6.508 29.61 6.508 43.439 10.901-19.686 8.46-48.808 0.488-72.399 1.952-2.929 29.122-5.044 60.848-11.877 83.788 1.79 1.79 3.905 3.579 6.182 5.044 15.944 10.575 42.463 14.643 59.058 25.218 3.579 1.952 2.603 0.976 5.857 2.44v0c3.254-0.163 5.532 0 7.809-0.651 7.321-2.115 13.829-6.996 18.384-13.178 3.742-5.532 7.484-16.595 10.575-28.309 3.091-11.551 5.694-23.591 7.647-32.214 5.532-25.38-7.159-50.273-27.495-55.153zM390.793 704.895l-50.11 49.459-17.571-5.532 49.622-43.928zM349.143 706.847c13.829-1.464 12.365-1.139 12.365-1.139l-52.062 37.257c0 0-12.039-3.254-30.424-12.853-18.547-9.762-28.96-17.734-28.96-17.734s42.626-2.603 59.384-3.579c16.92-0.976 26.194-1.952 39.697-1.952z" />
<glyph unicode="&#xe901;" glyph-name="linux" horiz-adv-x="870" d="M419.65 709.834c0-3.391-3.391-3.391-3.391-3.391h-3.391c-3.391 0-3.391 3.391-6.781 6.781 0 0-3.391 3.391-3.391 6.781s0 3.391 3.391 3.391l6.781-3.391c3.391-3.391 6.781-6.781 6.781-10.172zM358.617 743.742c0 16.954-6.781 27.126-16.954 27.126 0 0 0-3.391-3.391-3.391v-6.781h10.172c0-6.781 3.391-10.172 3.391-16.954h6.781zM477.293 760.695c6.781 0 10.172-6.781 13.563-16.954h6.781c-3.391 3.391-3.391 6.781-3.391 10.172s0 6.781-3.391 10.172-6.781 6.781-10.172 6.781c0 0-3.391-3.391-6.781-3.391 0-3.391 3.391-3.391 3.391-6.781zM375.571 706.444c-3.391 0-3.391 0-3.391 3.391s0 6.781 3.391 10.172c6.781 0 10.172 3.391 10.172 3.391 3.391 0 3.391-3.391 3.391-3.391 0-3.391-3.391-6.781-10.172-13.563h-3.391zM338.273 709.834c-13.563 6.781-16.954 16.954-16.954 33.907 0 10.172 0 16.954 6.781 23.735 3.391 6.781 10.172 10.172 16.954 10.172s10.172-3.391 16.954-10.172c3.391-10.172 6.781-20.344 6.781-30.517v-6.781h3.391v3.391c3.391 0 3.391 6.781 3.391 20.344 0 10.172 0 20.344-6.781 30.517s-13.563 16.954-27.126 16.954c-10.172 0-20.344-6.781-23.735-16.954-6.781-13.563-8.138-23.735-8.138-40.689 0-13.563 4.747-27.126 18.31-40.689 3.391 3.391 6.781 3.391 10.172 6.781zM762.114 231.742c3.391 0 3.391 1.356 3.391 4.408 0 7.46-3.391 16.275-13.563 26.109-10.172 10.172-27.126 16.615-47.47 19.327-3.391 0.339-6.781 0.339-6.781 0.339-3.391 0.678-3.391 0.678-6.781 0.678-3.391 0.339-10.172 1.017-13.563 1.695 10.172 31.534 13.563 59.338 13.563 83.751 0 33.907-6.781 57.642-20.344 77.987s-27.126 30.517-44.079 33.907c-3.391-3.391-3.391-3.391-3.391-6.781 16.954-6.781 33.907-20.344 44.079-40.689 10.172-23.735 13.563-44.079 13.563-67.815 0-18.988-3.391-47.131-16.954-83.073-13.563-5.425-27.126-17.971-37.298-37.637 0-3.052 0-4.747 3.391-4.747 0 0 3.391 3.052 6.781 8.816 6.781 5.764 10.172 11.528 16.954 17.293 10.172 5.764 16.954 8.816 27.126 8.816 16.954 0 33.907-2.374 44.079-7.121 13.563-4.408 20.344-9.155 23.735-14.58 3.391-5.086 6.781-9.833 10.172-14.241 0-4.408 3.391-6.442 3.391-6.442zM450.167 723.397c-3.391 3.391-3.391 10.172-3.391 16.954 0 13.563 0 20.344 6.781 30.517 6.781 6.781 13.563 10.172 20.344 10.172 10.172 0 16.954-6.781 23.735-13.563 3.391-10.172 6.781-16.954 6.781-27.126 0-16.954-6.781-27.126-20.344-30.517 0 0 3.391-3.391 6.781-3.391 6.781 0 10.172-3.391 16.954-6.781 3.391 20.344 6.781 33.907 6.781 50.861 0 20.344-3.391 33.907-10.172 44.079-10.172 10.172-20.344 13.563-33.907 13.563-10.172 0-20.344-3.391-30.517-10.172-6.781-10.172-10.172-16.954-10.172-27.126 0-16.954 3.391-30.517 10.172-44.079 3.391 0 6.781-3.391 10.172-3.391zM490.856 669.146c-44.079-30.517-77.987-44.079-105.113-44.079-23.735 0-47.47 10.172-67.815 27.126 3.391-6.781 6.781-13.563 10.172-16.954l20.344-20.344c13.563-13.563 30.517-20.344 47.47-20.344 23.735 0 50.861 13.563 84.768 37.298l30.517 20.344c6.781 6.781 13.563 13.563 13.563 23.735 0 3.391 0 6.781-3.391 6.781-3.391 6.781-20.344 16.954-54.252 27.126-30.517 13.563-54.252 20.344-67.815 20.344-10.172 0-27.126-6.781-50.861-20.344-20.344-13.563-33.907-27.126-33.907-40.689 0 0 3.391-3.391 6.781-10.172 20.344-16.954 40.689-27.126 61.033-27.126 27.126 0 61.033 13.563 105.113 47.47v-6.781c3.391 0 3.391-3.391 3.391-3.391zM568.842-15.781c13.563-25.43 37.298-38.315 64.424-38.315 6.781 0 13.563 1.017 20.344 3.052 6.781 1.356 13.563 3.73 16.954 6.442 3.391 2.374 6.781 4.747 10.172 7.46 6.781 2.374 6.781 4.069 10.172 5.764l57.642 49.844c13.563 10.85 27.126 20.344 44.079 28.482 13.563 8.138 27.126 13.563 33.907 16.615 10.172 2.713 16.954 6.781 23.735 12.207 3.391 5.086 6.781 11.528 6.781 19.666 0 9.833-6.781 17.293-13.563 22.718s-13.563 9.155-20.344 11.528-13.563 7.799-23.735 16.954c-6.781 8.816-13.563 21.023-16.954 36.959l-3.391 19.666c-3.391 9.155-3.391 15.936-6.781 19.666 0 1.017 0 1.356-3.391 1.356s-10.172-3.052-13.563-8.816c-6.781-5.764-13.563-12.207-20.344-18.988-3.391-6.781-13.563-12.885-20.344-18.649-10.172-5.764-20.344-8.816-27.126-8.816-27.126 0-40.689 7.46-50.861 22.040-6.781 10.85-10.172 23.396-13.563 37.637-6.781 5.764-10.172 8.816-16.954 8.816-16.954 0-23.735-17.632-23.735-53.234v-105.452c0-3.052-3.391-9.833-3.391-20.344-3.391-10.511-3.391-22.379-3.391-35.942l-6.781-37.637v-0.678zM77.187 2.189c31.534-4.747 67.815-14.58 108.842-29.499s66.119-22.718 75.274-22.718c23.735 0 43.401 10.511 59.677 30.856 3.391 6.442 3.391 14.241 3.391 23.057 0 31.873-19.327 72.562-57.981 121.727l-23.057 30.856c-4.747 6.442-10.511 16.275-17.971 29.499-7.121 13.224-13.563 23.396-18.649 30.517-4.408 7.799-11.528 15.597-20.683 23.396-8.816 7.799-18.988 12.885-30.177 15.597-14.241-2.713-24.074-7.46-28.821-13.902s-7.46-13.563-8.138-21.023c-1.017-7.121-3.052-11.868-6.442-14.241-3.391-2.034-9.155-3.73-16.954-5.425-1.695 0-4.747 0-9.155-0.339h-9.155c-17.971 0-30.177-2.034-36.62-5.425-8.477-9.833-12.885-21.023-12.885-32.89 0-5.425 1.356-14.58 4.069-27.465 2.713-12.546 4.069-22.718 4.069-29.838 0-13.902-4.069-27.804-12.546-41.706-8.477-14.58-12.885-25.43-12.885-33.229 3.391-12.885 25.77-22.379 66.797-27.804zM190.098 310.407c0 23.396 6.103 49.166 18.649 79.682 12.207 30.517 24.413 50.861 36.281 64.424-0.678 3.391-2.374 3.391-5.086 3.391l-3.391 3.391c-9.833-10.172-21.701-33.907-35.942-67.815-14.241-30.517-21.701-58.66-21.701-79.343 0-15.258 3.73-28.482 10.511-40.011 7.46-11.189 25.43-27.465 53.913-48.148l35.942-23.396c38.315-33.229 58.66-56.286 58.66-69.849 0-7.121-3.391-14.241-13.563-22.040-6.781-8.138-15.936-12.207-23.735-12.207-0.678 0-1.017-0.678-1.017-2.374 0-0.339 3.391-7.121 10.511-20.344 14.241-19.327 44.758-28.821 85.446-28.821 74.596 0 132.238 30.517 176.318 91.55 0 16.954 0 27.465-3.391 31.873v12.546c0 22.040 3.391 38.654 10.172 49.505s13.563 15.936 23.735 15.936c6.781 0 13.563-2.374 20.344-7.46 3.391 26.109 3.391 48.826 3.391 69.171 0 30.856 0 56.286-6.781 80.021-3.391 20.344-10.172 37.298-16.954 50.861-6.781 10.172-13.563 20.344-20.344 30.517s-10.172 20.344-16.954 30.517c-3.391 13.563-6.781 23.735-6.781 40.689-10.172 16.954-16.954 33.907-27.126 50.861-6.781 16.954-13.563 33.907-20.344 47.47l-30.517-23.735c-33.907-23.735-61.033-33.907-84.768-33.907-20.344 0-37.298 3.391-47.47 16.954l-20.344 16.954c0-10.172-3.391-23.735-10.172-37.298l-21.362-40.689c-9.494-23.735-14.58-37.298-15.597-47.47-1.356-6.781-2.374-13.563-3.052-13.563l-25.43-50.861c-27.465-50.861-41.367-97.992-41.367-136.985 0-7.799 0.678-15.936 2.034-24.074-15.258 10.511-22.718 25.091-22.718 44.079zM432.874-10.356c-44.079 0-77.987-6.103-101.722-17.971v1.356c-16.954-20.344-35.942-30.856-62.389-30.856-16.615 0-42.723 6.442-77.987 19.327-35.603 12.207-67.136 21.362-94.601 27.804-2.713 0.678-8.816 2.034-18.649 3.391-9.494 1.356-18.31 3.052-26.109 4.747-7.121 1.695-15.258 3.73-24.074 7.121-8.477 2.713-15.258 6.103-20.344 10.511-4.747 3.73-7.121 8.816-7.121 13.902 0 5.425 1.017 11.189 3.391 17.293 2.034 3.73 4.408 7.46 6.781 10.85 2.374 3.73 4.408 7.121 5.764 10.511 2.034 3.052 3.391 6.103 4.747 9.494 1.356 3.052 2.713 6.103 3.391 9.833 0.678 3.391 1.356 6.781 1.356 10.172s-1.356 13.563-4.069 31.534c-2.713 17.632-4.069 28.821-4.069 33.568 0 14.919 3.391 26.787 10.85 35.264s14.58 12.885 22.040 12.885h38.993c3.052 0 7.799 1.695 14.919 5.764 2.374 5.425 4.408 9.833 5.764 13.902 1.695 4.069 2.374 7.121 3.052 8.477 0.678 2.034 1.356 4.069 2.034 5.764 1.356 2.374 3.052 5.086 5.425 7.799-2.713 3.391-4.069 7.799-4.069 13.224 0 3.73 0 7.121 0.678 9.155 0 12.207 5.764 29.499 17.971 52.217l11.868 21.362c9.833 18.31 17.293 31.873 22.718 45.436 5.764 13.563 11.868 33.907 18.649 61.033 5.425 23.735 18.31 47.47 38.654 71.205l25.43 30.517c17.632 20.344 29.16 37.298 35.603 50.861s9.833 30.517 9.833 44.079c0 6.781-1.695 27.126-5.425 61.033-3.391 33.907-5.086 67.815-5.086 98.331 0 23.735 2.034 40.689 6.442 57.642s12.207 33.907 23.735 47.47c10.172 13.563 23.735 27.126 44.079 33.907s44.079 10.172 71.205 10.172c10.172 0 20.344 0 30.517-3.391 10.172 0 23.735-3.391 40.689-10.172 13.563-6.781 27.126-13.563 37.298-23.735 13.563-10.172 23.735-27.126 33.907-44.079 6.781-20.344 13.563-40.689 16.954-67.815 3.391-16.954 3.391-33.907 6.781-57.642 0-20.344 3.391-33.907 3.391-44.079 3.391-10.172 3.391-23.735 6.781-40.689 3.391-13.563 6.781-27.126 13.563-37.298 6.781-13.563 13.563-27.126 23.735-40.689 10.172-16.954 23.735-33.907 37.298-54.252 30.517-33.907 54.252-71.205 67.815-108.503 16.954-33.907 27.126-77.987 27.126-125.118 0-23.396-3.391-46.114-10.172-68.154 6.781 0 10.172-2.713 13.563-7.46s6.781-14.919 10.172-30.856l3.391-25.091c3.391-7.46 6.781-14.58 16.954-20.683 6.781-6.103 13.563-11.189 23.735-15.258 6.781-3.391 16.954-8.138 23.735-14.241 6.781-6.781 10.172-13.902 10.172-21.362 0-11.528-3.391-20.005-10.172-26.109-6.781-6.781-13.563-11.528-23.735-14.58-6.781-3.391-20.344-10.172-40.689-19.666-16.954-10.172-33.907-22.379-50.861-36.62l-33.907-28.821c-13.563-13.224-27.126-22.718-37.298-28.482-10.172-6.103-23.735-9.155-37.298-9.155l-23.735 2.713c-27.126 7.121-44.079 20.683-54.252 41.367-53.913 6.781-97.992 9.833-125.118 9.833z" />
<glyph unicode="&#xe902;" glyph-name="reactjs" horiz-adv-x="1151" d="M678.228 449.127c0-56.792-46.039-102.83-102.83-102.83s-102.83 46.039-102.83 102.83c0 56.792 46.039 102.83 102.83 102.83s102.83-46.039 102.83-102.83zM575.398 213.56c-144.413 0-270.595 17.002-365.027 49.367-61.247 20.894-113.277 48.752-150.353 80.503-39.125 33.594-60.018 70.26-60.018 105.698 0 68.007 74.562 134.581 199.72 178.007 102.42 35.642 235.977 55.512 375.678 55.512 137.243 0 268.956-19.255 370.762-54.488 59.609-20.484 109.795-47.113 145.437-76.611 38.715-32.365 59.199-67.802 59.199-102.42 0-70.67-83.37-142.16-217.746-186.61-95.251-31.546-222.252-48.957-357.652-48.957zM575.398 633.483c-132.532 0-263.63-19.255-359.496-52.644-115.121-40.149-166.741-95.046-166.741-131.713 0-38.1 55.512-98.119 177.187-139.702 89.311-30.521 210.167-46.704 349.049-46.704 130.279 0 251.75 16.387 342.084 46.499 126.387 41.992 184.152 102.011 184.152 139.906 0 19.46-14.749 42.402-41.583 64.73-30.931 25.81-75.996 49.367-129.869 68.007-96.89 33.184-222.867 51.62-354.785 51.62zM341.88-63.385c-20.894 0-39.329 4.507-54.897 13.52-58.789 34.004-79.273 131.918-54.488 261.992 20.279 106.722 69.851 232.085 139.702 353.146v0c68.622 118.808 150.968 223.277 232.29 293.947 47.523 41.378 95.661 71.694 139.087 87.672 47.318 17.411 88.286 17.411 118.193 0.205 61.247-35.233 81.527-143.389 52.849-281.861-20.279-98.324-68.622-216.927-136.219-334.3-72.104-124.953-149.944-225.94-225.12-291.489-48.752-42.607-98.938-73.743-144.823-89.925-23.762-8.603-46.294-12.905-66.573-12.905zM414.803 540.691c-66.164-114.711-115.121-237.82-133.966-337.783-22.737-119.832-0.819-191.936 30.726-210.167 32.979-19.050 112.663-1.024 209.552 83.78 71.080 62.067 145.437 158.752 214.878 278.993 65.139 112.867 111.433 226.349 130.689 319.552 26.834 130.484 3.687 210.372-29.292 229.422-16.797 9.628-44.041 8.398-76.815-3.687-37.896-13.929-80.707-41.173-123.724-78.659-77.225-67.188-156.089-167.15-222.048-281.451v0zM808.712-64c-55.717 0-126.387 33.594-200.13 97.095-82.141 70.875-166.126 176.368-236.182 297.429v0c-68.827 118.808-117.988 242.327-138.677 348.23-12.086 61.862-14.339 118.603-6.555 164.282 8.603 49.776 28.883 85.214 58.994 102.625 61.043 35.437 164.897-1.024 270.595-95.046 74.972-66.573 153.631-167.765 221.433-284.934 72.309-124.953 120.856-242.737 140.111-340.651 12.495-63.501 14.544-122.495 5.736-170.428-9.423-51.005-30.726-87.262-61.452-105.083-15.363-9.013-33.594-13.52-53.873-13.52zM415.008 355.105c66.368-114.711 148.715-218.565 225.735-284.729 92.383-79.478 165.716-96.685 197.467-78.249 32.979 19.050 57.151 97.095 32.16 223.277-18.436 92.588-64.935 205.251-134.376 325.492-65.344 112.867-140.521 209.757-211.601 272.848-99.553 88.491-180.465 108.156-213.444 89.106-16.797-9.628-29.292-34.004-35.233-68.417-6.76-39.739-4.711-90.54 6.35-146.461 19.665-100.372 66.778-218.565 132.942-332.867v0z" />
<glyph unicode="&#xe903;" glyph-name="scrum" horiz-adv-x="1488" d="M1488.327 147.592l-212.245 212.245v-141.714h-272.98c68.571 78.367 110.367 181.551 110.367 293.878 0 247.51-200.49 448-447.347 448-161.959 0-303.673-86.204-382.694-214.857l-128.653 57.469 73.796-193.959c-6.531-30.694-10.449-62.694-10.449-96 0-112.98 41.796-215.51 110.367-293.878h-328.49v-148.245h599.51c21.551-3.265 43.755-5.224 66.612-5.224s44.408 1.959 66.612 5.224h543.347v-134.531l212.245 211.592zM877.714 301.061c-42.449-42.449-96.653-71.837-157.388-82.939h-107.102c-61.388 11.102-115.592 40.49-158.041 82.939-54.204 54.204-87.51 128.653-87.51 211.592 0 17.633 1.306 34.612 4.571 50.939l171.102 65.306-122.122 54.857c9.796 14.367 21.551 28.082 33.959 40.49 54.204 54.204 128.653 87.51 211.592 87.51s157.388-33.306 211.592-87.51c54.204-54.204 87.51-128.653 87.51-211.592-0.653-82.939-33.959-157.388-88.163-211.592z" />
<glyph unicode="&#xe904;" glyph-name="windows" d="M0 815.709l415.418 57.018v-400.291l-415.418-3.491v346.764zM415.418 425.891v-401.455l-415.418 57.018v346.764l415.418-2.327zM465.455 879.709l550.4 80.291v-482.909l-550.4-4.655v407.273zM1015.855 421.236v-480.582l-550.4 77.964-1.164 403.782 551.564-1.164z" />
<glyph unicode="&#xe905;" glyph-name="commenting-o" d="M365.714 448q0-30.286-21.429-51.714t-51.714-21.429-51.714 21.429-21.429 51.714 21.429 51.714 51.714 21.429 51.714-21.429 21.429-51.714zM585.143 448q0-30.286-21.429-51.714t-51.714-21.429-51.714 21.429-21.429 51.714 21.429 51.714 51.714 21.429 51.714-21.429 21.429-51.714zM804.571 448q0-30.286-21.429-51.714t-51.714-21.429-51.714 21.429-21.429 51.714 21.429 51.714 51.714 21.429 51.714-21.429 21.429-51.714zM512 740.571q-116.571 0-218-39.714t-161.143-107.143-59.714-145.714q0-64 40.857-122t115.143-100.286l49.714-28.571-15.429-54.857q-13.714-52-40-98.286 86.857 36 157.143 97.714l24.571 21.714 32.571-3.429q39.429-4.571 74.286-4.571 116.571 0 218 39.714t161.143 107.143 59.714 145.714-59.714 145.714-161.143 107.143-218 39.714zM1024 448q0-99.429-68.571-183.714t-186.286-133.143-257.143-48.857q-40 0-82.857 4.571-113.143-100-262.857-138.286-28-8-65.143-12.571h-2.857q-8.571 0-15.429 6t-9.143 15.714v0.571q-1.714 2.286-0.286 6.857t1.143 5.714 2.571 5.429l3.429 5.143 4 4.857 4.571 5.143q4 4.571 17.714 19.714t19.714 21.714 17.714 22.571 18.571 29.143 15.429 33.714 14.857 43.429q-89.714 50.857-141.429 125.714t-51.714 160.571q0 74.286 40.571 142t109.143 116.857 163.429 78 198.857 28.857 198.857-28.857 163.429-78 109.143-116.857 40.571-142z" />
<glyph unicode="&#xe906;" glyph-name="plus" d="M914.286 539.429v-109.714q0-22.857-16-38.857t-38.857-16h-237.714v-237.714q0-22.857-16-38.857t-38.857-16h-109.714q-22.857 0-38.857 16t-16 38.857v237.714h-237.714q-22.857 0-38.857 16t-16 38.857v109.714q0 22.857 16 38.857t38.857 16h237.714v237.714q0 22.857 16 38.857t38.857 16h109.714q22.857 0 38.857-16t16-38.857v-237.714h237.714q22.857 0 38.857-16t16-38.857z" />
<glyph unicode="&#xe907;" glyph-name="star" d="M987.429 590.286q0-12.571-14.857-27.429l-207.429-202.286 49.143-285.714q0.571-4 0.571-11.429 0-12-6-20.286t-17.429-8.286q-10.857 0-22.857 6.857l-256.571 134.857-256.571-134.857q-12.571-6.857-22.857-6.857-12 0-18 8.286t-6 20.286q0 3.429 1.143 11.429l49.143 285.714-208 202.286q-14.286 15.429-14.286 27.429 0 21.143 32 26.286l286.857 41.714 128.571 260q10.857 23.429 28 23.429t28-23.429l128.571-260 286.857-41.714q32-5.143 32-26.286z" />
<glyph unicode="&#xe908;" glyph-name="times" d="M851.429 204.571q0-22.857-16-38.857l-77.714-77.714q-16-16-38.857-16t-38.857 16l-168 168-168-168q-16-16-38.857-16t-38.857 16l-77.714 77.714q-16 16-16 38.857t16 38.857l168 168-168 168q-16 16-16 38.857t16 38.857l77.714 77.714q16 16 38.857 16t38.857-16l168-168 168 168q16 16 38.857 16t38.857-16l77.714-77.714q16-16 16-38.857t-16-38.857l-168-168 168-168q16-16 16-38.857z" />
<glyph unicode="&#xe909;" glyph-name="photoshop" horiz-adv-x="1050" d="M43.755 916.245h962.779v-936.491h-962.779v936.491zM0-64h1050.288v1024h-1050.288v-1024zM708.014 539.92c-34.58 0-46.401-17.467-46.401-31.934 0-15.702 7.939-26.641 54.34-50.812 68.631-33.345 90.156-65.279 90.156-112.033 0-70.043-53.458-107.622-125.618-107.622-38.109 0-70.925 7.939-89.626 18.878-2.999 1.235-3.529 3.529-3.529 7.057v64.397c0 4.411 2.117 5.646 5.293 3.529 27.523-17.996 59.104-25.759 88.039-25.759 34.58 0 49.048 14.467 49.048 34.051 0 15.702-10.057 29.817-54.34 52.576-62.103 29.817-88.039 59.986-88.039 110.269 0 56.458 44.284 103.212 120.855 103.212 37.58 0 63.868-5.646 78.335-12.174 3.529-2.117 4.411-5.646 4.411-8.822v-59.986c0-3.529-2.117-5.646-6.528-4.411-19.407 12.174-47.989 19.584-76.394 19.584v0zM331.688 487.873c10.057-0.882 17.996-0.882 35.462-0.882 51.165 0 99.33 17.996 99.33 87.509 0 55.575-34.58 83.628-92.802 83.628-17.467 0-34.051-0.882-41.99-1.235v-169.020zM253.883 720.232c0 2.999 6.175 5.293 9.704 5.293 28.052 1.235 69.513 2.117 112.915 2.117 121.207 0 168.491-66.514 168.491-151.377 0-111.151-80.452-158.787-179.429-158.787-16.584 0-22.23 0.882-34.051 0.882v-167.961c0-3.529-1.235-5.293-5.293-5.293h-66.867c-3.529 0-5.293 1.235-5.293 5.293l-0.176 469.833z" />
<glyph unicode="&#xe90a;" glyph-name="animate" horiz-adv-x="1050" d="M43.755 916.245h962.779v-936.491h-962.779v936.491zM0-64h1050.288v1024h-1050.288v-1024zM304.165 345.671l-33.875-127.206c-0.706-3.352-2.117-3.705-6.528-3.705h-62.456c-4.058 0-4.764 1.411-4.058 6.528l120.678 423.256c2.117 7.939 3.352 12.35 4.058 33.522 0 2.823 1.411 4.058 3.352 4.058h89.274c2.823 0 4.058-0.706 4.764-4.058l135.498-457.483c0.706-3.352 0-5.822-3.352-5.822h-70.219c-3.352 0-5.822 0.353-6.528 3.176l-35.286 127.912-135.322-0.176zM422.55 415.537c-11.997 47.107-39.873 149.789-50.459 199.542h-0.706c-9.351-49.753-31.757-133.381-49.048-199.542h100.212zM595.628 490.167c0 4.058 0 19.054-2.117 43.578 0 2.823 1.059 3.352 3.705 4.764 35.992 13.232 82.216 28.052 130.735 28.052 59.81 0 125.265-23.112 125.265-125.971v-220.89c0-4.058-1.411-5.822-4.764-5.822h-63.868c-4.058 0-5.469 2.117-5.469 5.822v215.245c0 40.579-14.291 63.162-56.634 63.162-17.996 0-35.639-3.352-48.165-7.939v-271.173c0-2.823-1.411-4.764-4.058-4.764h-69.161c-3.352 0-4.764 1.411-4.764 4.764v271.349l-0.706-0.176z" />
<glyph unicode="&#xe90b;" glyph-name="undo" d="M950.857 448q0-89.143-34.857-170.286t-93.714-140-140-93.714-170.286-34.857q-98.286 0-186.857 41.429t-150.857 116.857q-4 5.714-3.714 12.857t4.857 11.714l78.286 78.857q5.714 5.143 14.286 5.143 9.143-1.143 13.143-6.857 41.714-54.286 102.286-84t128.571-29.714q59.429 0 113.429 23.143t93.429 62.571 62.571 93.429 23.143 113.429-23.143 113.429-62.571 93.429-93.429 62.571-113.429 23.143q-56 0-107.429-20.286t-91.429-58l78.286-78.857q17.714-17.143 8-39.429-9.714-22.857-33.714-22.857h-256q-14.857 0-25.714 10.857t-10.857 25.714v256q0 24 22.857 33.714 22.286 9.714 39.429-8l74.286-73.714q61.143 57.714 139.714 89.429t162.571 31.714q89.143 0 170.286-34.857t140-93.714 93.714-140 34.857-170.286z" />
<glyph unicode="&#xe96b;" glyph-name="bubble" d="M512 896c282.77 0 512-186.25 512-416 0-229.752-229.23-416-512-416-27.156 0-53.81 1.734-79.824 5.044-109.978-109.978-241.25-129.7-368.176-132.596v26.916c68.536 33.578 128 94.74 128 164.636 0 9.754-0.758 19.33-2.164 28.696-115.796 76.264-189.836 192.754-189.836 323.304 0 229.75 229.23 416 512 416z" />
<glyph unicode="&#xe999;" glyph-name="uniE999" d="M1024 384v64h-193.29c-5.862 72.686-31.786 139.026-71.67 192.25h161.944l70.060 280.24-62.090 15.522-57.94-231.76h-174.68c-0.892 0.694-1.796 1.374-2.698 2.056 6.71 19.502 10.362 40.422 10.362 62.194 0.002 105.76-85.958 191.498-191.998 191.498s-192-85.738-192-191.5c0-21.772 3.65-42.692 10.362-62.194-0.9-0.684-1.804-1.362-2.698-2.056h-174.68l-57.94 231.76-62.090-15.522 70.060-280.24h161.944c-39.884-53.222-65.806-119.562-71.668-192.248h-193.29v-64h193.37c3.802-45.664 15.508-88.812 33.638-127.75h-123.992l-70.060-280.238 62.090-15.524 57.94 231.762h112.354c58.692-78.032 147.396-127.75 246.66-127.75s187.966 49.718 246.662 127.75h112.354l57.94-231.762 62.090 15.524-70.060 280.238h-123.992c18.13 38.938 29.836 82.086 33.636 127.75h193.37z" />
<glyph unicode="&#xea34;" glyph-name="uniEA34" d="M992 448l-480 480v-288h-512v-384h512v-288z" />
<glyph unicode="&#xea41;" glyph-name="uniEA41" d="M0 448c0-282.77 229.23-512 512-512s512 229.23 512 512-229.23 512-512 512-512-229.23-512-512zM928 448c0-229.75-186.25-416-416-416s-416 186.25-416 416 186.25 416 416 416 416-186.25 416-416zM706.744 290.744l90.512 90.512-285.256 285.254-285.254-285.256 90.508-90.508 194.746 194.744z" />
<glyph unicode="&#xea42;" glyph-name="uniEA42" d="M512 960c-282.77 0-512-229.23-512-512s229.23-512 512-512 512 229.23 512 512-229.23 512-512 512zM512 32c-229.75 0-416 186.25-416 416s186.25 416 416 416 416-186.25 416-416-186.25-416-416-416zM354.744 253.256l90.512-90.512 285.254 285.256-285.256 285.254-90.508-90.508 194.744-194.746z" />
<glyph unicode="&#xea43;" glyph-name="uniEA43" d="M1024 448c0 282.77-229.23 512-512 512s-512-229.23-512-512 229.23-512 512-512 512 229.23 512 512zM96 448c0 229.75 186.25 416 416 416s416-186.25 416-416-186.25-416-416-416-416 186.25-416 416zM317.256 605.256l-90.512-90.512 285.256-285.254 285.254 285.256-90.508 90.508-194.746-194.744z" />
<glyph unicode="&#xea44;" glyph-name="uniEA44" d="M512-64c282.77 0 512 229.23 512 512s-229.23 512-512 512-512-229.23-512-512 229.23-512 512-512zM512 864c229.75 0 416-186.25 416-416s-186.25-416-416-416-416 186.25-416 416 186.25 416 416 416zM669.256 642.744l-90.512 90.512-285.254-285.256 285.256-285.254 90.508 90.508-194.744 194.746z" />
<glyph unicode="&#xea81;" glyph-name="uniEA81" d="M0 896v-896h1024v896h-1024zM960 64h-896v768h896v-768zM896 768h-768v-640h768v640zM448 448h-64v-64h-64v-64h-64v64h64v64h64v64h-64v64h-64v64h64v-64h64v-64h64v-64zM704 320h-192v64h192v-64z" />
<glyph unicode="&#xeab1;" glyph-name="uniEAB1" d="M512.008 947.358c-282.738 0-512.008-229.218-512.008-511.998 0-226.214 146.704-418.132 350.136-485.836 25.586-4.738 34.992 11.11 34.992 24.632 0 12.204-0.48 52.542-0.696 95.324-142.448-30.976-172.504 60.41-172.504 60.41-23.282 59.176-56.848 74.916-56.848 74.916-46.452 31.778 3.51 31.124 3.51 31.124 51.4-3.61 78.476-52.766 78.476-52.766 45.672-78.27 119.776-55.64 149.004-42.558 4.588 33.086 17.852 55.68 32.506 68.464-113.73 12.942-233.276 56.85-233.276 253.032 0 55.898 20.004 101.574 52.76 137.428-5.316 12.9-22.854 64.972 4.952 135.5 0 0 43.006 13.752 140.84-52.49 40.836 11.348 84.636 17.036 128.154 17.234 43.502-0.198 87.336-5.886 128.256-17.234 97.734 66.244 140.656 52.49 140.656 52.49 27.872-70.528 10.35-122.6 5.036-135.5 32.82-35.856 52.694-81.532 52.694-137.428 0-196.654-119.778-239.95-233.79-252.624 18.364-15.89 34.724-47.046 34.724-94.812 0-68.508-0.596-123.644-0.596-140.508 0-13.628 9.222-29.594 35.172-24.566 203.322 67.776 349.842 259.626 349.842 485.768 0 282.78-229.234 511.998-511.992 511.998z" />
<glyph unicode="&#xeab5;" glyph-name="uniEAB5" d="M235.278 711.28c-50.792 0-94.484-16.806-131.084-50.416-38.086-35.852-57.14-80.66-57.14-134.436 0-35.852 10.376-69.462 31.294-100.832 18.674-29.126 38.18-47.806 63.778-56.024v-2.242c-25.598-10.448-36.966-36.59-36.966-78.418 0-32.124 11.372-56.022 36.966-71.708v-2.242c-70.654-23.146-102.992-66.094-102.992-128.83 0-54.534 23.748-94.488 70.066-119.878 36.59-20.172 83.578-30.254 140.346-30.254 138.17 0 207.406 57.882 207.406 173.664 0 72.446-53.322 116.882-160.128 133.316-24.646 3.726-43.286 12.696-55.982 26.89-9.708 9.708-14.542 19.418-14.542 29.126 0 27.632 14.958 43.696 44.82 48.176 45.558 6.714 82.728 27.824 111.486 63.296 28.75 35.48 43.13 77.118 43.13 124.916 0 14.938-4.518 30.996-10.488 48.172 19.418 4.488 33.050 8.594 43.292 12.332v115.392c-45.054-17.928-86.99-26.884-122.842-26.884-31.374 17.922-63.824 26.884-100.42 26.884zM247.602 152.23c62.744 0 94.104-19.042 94.104-57.14 0-40.336-28.754-60.492-86.264-60.492-65.724 0-98.586 19.422-98.586 58.254-0.002 39.59 30.244 59.378 90.746 59.378zM239.76 448c-47.054 0-70.586 25.764-70.586 77.308 0 55.262 23.532 82.906 70.586 82.906 22.402 0 39.958-8.596 52.652-25.768 10.458-15.69 15.69-34.36 15.69-56.022 0-52.278-22.786-78.424-68.342-78.424zM580.384 960c-21.656 0-40.14-8.214-55.454-24.648-15.314-16.436-22.97-36.216-22.97-59.376 0-22.41 7.658-41.82 22.97-58.258 15.308-16.434 33.792-24.64 55.454-24.64 20.91 0 39.028 8.208 54.34 24.64 15.312 16.438 22.96 35.848 22.96 58.258 0 23.16-7.648 42.944-22.96 59.376-15.318 16.434-33.43 24.648-54.34 24.648zM643.13 704.002h-126.606c1.496-14.336-0.64-36.042-0.64-71.14v-348.432c0-35.856 2.136-64.774 0.64-76.036h126.606c-1.5 16.376-5.394 44.668-5.394 82.758v343.946c-0.006 32.864 3.894 54.568 5.394 68.904zM922.336 315.8c-32.872 0-49.082 25.028-49.082 75.066v206.64h49.864c8.96 0 17.032 0.492 27.118-0.246 10.086-0.748 14.152-0.25 19.278-0.25v106.99h-96.258v47.616c0 17.922 2.816 34.302 5.054 44.542h-129.958c2.242-10.24 2.028-25.876 2.028-46.79v-45.368h-56.32v-106.988c15.364 2.24 29.090 3.356 38.796 3.356l17.524-1.118v-202.786c0-62.742 7.958-108.672 23.636-137.8 20.922-38.84 57.622-58.258 112.136-58.258 38.848 0 73.118 7.464 98.714 22.41v112.032c-20.474-12.7-39.382-19.048-62.53-19.048z" />
<glyph unicode="&#xeab6;" glyph-name="uniEAB6" d="M128 448.008c0-148.026 88.322-275.968 216.43-336.578l-183.178 488.784c-21.308-46.508-33.252-97.982-33.252-152.206zM771.228 466.872c0 46.234-17.054 78.236-31.654 103.142-19.458 30.82-37.72 56.894-37.72 87.716 0 34.374 26.766 66.376 64.486 66.376 1.704 0 3.32-0.204 4.976-0.302-68.316 60.97-159.34 98.196-259.308 98.196-134.16 0-252.186-67.046-320.844-168.568 9.010-0.282 17.506-0.454 24.712-0.454 40.154 0 102.34 4.752 102.34 4.752 20.69 1.182 23.132-28.434 2.458-30.822 0 0-20.81-2.368-43.952-3.55l139.834-405.106 84.044 245.456-59.822 159.65c-20.688 1.184-40.278 3.55-40.278 3.55-20.702 1.192-18.272 32.002 2.438 30.822 0 0 63.4-4.752 101.134-4.752 40.146 0 102.35 4.752 102.35 4.752 20.702 1.182 23.14-28.434 2.446-30.822 0 0-20.834-2.372-43.948-3.55l138.78-402.018 38.312 124.632c16.58 51.75 29.216 88.9 29.216 120.9zM518.742 415.296l-115.226-326.058c34.416-9.858 70.794-15.238 108.488-15.238 44.716 0 87.604 7.518 127.518 21.2-1.018 1.602-1.974 3.304-2.75 5.154l-118.030 314.942zM848.962 627.428c1.652-11.91 2.588-24.686 2.588-38.458 0-37.93-7.292-80.596-29.202-133.95l-117.286-330.272c114.162 64.828 190.938 185.288 190.938 323.258 0 65.030-17.060 126.16-47.038 179.422zM512 960c-282.77 0-512-229.23-512-512s229.23-512 512-512 512 229.23 512 512-229.23 512-512 512zM512 0c-247.424 0-448 200.576-448 448s200.576 448 448 448 448-200.576 448-448-200.576-448-448-448z" />
<glyph unicode="&#xeabf;" glyph-name="uniEABF" d="M791.498 415.908c-1.294 129.682 105.758 191.876 110.542 194.966-60.152 88.020-153.85 100.078-187.242 101.472-79.742 8.074-155.596-46.948-196.066-46.948-40.368 0-102.818 45.754-168.952 44.552-86.916-1.292-167.058-50.538-211.812-128.38-90.304-156.698-23.126-388.84 64.89-515.926 43.008-62.204 94.292-132.076 161.626-129.58 64.842 2.588 89.362 41.958 167.756 41.958s100.428-41.958 169.050-40.67c69.774 1.296 113.982 63.398 156.692 125.796 49.39 72.168 69.726 142.038 70.924 145.626-1.548 0.706-136.060 52.236-137.408 207.134zM662.562 796.478c35.738 43.358 59.86 103.512 53.28 163.522-51.478-2.096-113.878-34.29-150.81-77.55-33.142-38.376-62.148-99.626-54.374-158.436 57.466-4.484 116.128 29.204 151.904 72.464z" />
<glyph unicode="&#xeac1;" glyph-name="uniEAC1" d="M896 576c-35.2 0-64-28.8-64-64v-256c0-35.2 28.8-64 64-64s64 28.8 64 64v256c0 35.2-28.8 64-64 64zM128 576c-35.2 0-64-28.8-64-64v-256c0-35.2 28.8-64 64-64s64 28.8 64 64v256c0 35.2-28.802 64-64 64zM224 224c0-53.020 42.98-96 96-96v0-128c0-35.2 28.8-64 64-64s64 28.8 64 64v128h128v-128c0-35.2 28.8-64 64-64s64 28.8 64 64v128c53.020 0 96 42.98 96 96v352h-576v-352zM798.216 639.998c-9.716 87.884-59.004 163.792-129.62 209.646l32.024 64.046c7.904 15.806 1.496 35.028-14.31 42.932s-35.030 1.496-42.932-14.312l-32.142-64.286-8.35 3.316c-28.568 9.502-59.122 14.66-90.886 14.66-31.762 0-62.316-5.158-90.888-14.656l-8.348-3.316-32.142 64.282c-7.904 15.808-27.128 22.212-42.932 14.312-15.808-7.904-22.214-27.126-14.312-42.932l32.022-64.046c-70.616-45.852-119.904-121.762-129.622-209.644v-32h574.222v31.998h-1.784zM416 704c-17.674 0-32 14.328-32 32 0 17.648 14.288 31.958 31.93 31.996 0.032 0 0.062-0.002 0.094-0.002 0.018 0 0.036 0.002 0.052 0.002 17.638-0.042 31.924-14.35 31.924-31.996 0-17.672-14.326-32-32-32zM608 704c-17.674 0-32 14.328-32 32 0 17.646 14.286 31.954 31.924 31.996 0.016 0 0.034-0.002 0.050-0.002 0.032 0 0.064 0.002 0.096 0.002 17.64-0.038 31.93-14.348 31.93-31.996 0-17.672-14.326-32-32-32z" />
<glyph unicode="&#xeadf;" glyph-name="uniEADF" d="M60.538 960l82.144-921.63 368.756-102.37 369.724 102.524 82.3 921.476h-902.924zM784.63 658.572h-432.54l10.302-115.75h411.968l-31.042-347.010-231.844-64.254-231.572 64.254-15.83 177.512h113.494l8.048-90.232 125.862-33.916 0.278 0.078 125.934 33.992 13.070 146.55h-391.74l-30.494 341.8h566.214l-10.108-113.024z" />
<glyph unicode="&#xeae1;" glyph-name="uniEAE1" d="M152.388 911.478l-34.36-171.926h699.748l-21.884-111.054h-700.188l-33.892-171.898h699.684l-39.018-196.064-282.012-93.422-244.4 93.422 16.728 85.042h-171.898l-40.896-206.352 404.226-154.704 466.006 154.704 153.768 772.252z" />
</font>
</defs>
</svg>
