<?xml version="1.0" encoding="UTF-8" standalone="no"?>
<!-- Created with Inkscape (http://www.inkscape.org/) -->

<svg
   xmlns:dc="http://purl.org/dc/elements/1.1/"
   xmlns:cc="http://creativecommons.org/ns#"
   xmlns:rdf="http://www.w3.org/1999/02/22-rdf-syntax-ns#"
   xmlns:svg="http://www.w3.org/2000/svg"
   xmlns="http://www.w3.org/2000/svg"
   version="1.1"
   width="225"
   height="320"
   id="svg3491">
  <defs
     id="defs3493">
    <clipPath
       id="clipPath3462">
      <path
         d="m 0,485.035 648.988,0 L 648.988,0 0,0 0,485.035 z"
         id="path3464" />
    </clipPath>
  </defs>
  <metadata
     id="metadata3496">
    <rdf:RDF>
      <cc:Work
         rdf:about="">
        <dc:format>image/svg+xml</dc:format>
        <dc:type
           rdf:resource="http://purl.org/dc/dcmitype/StillImage" />
        <dc:title></dc:title>
      </cc:Work>
    </rdf:RDF>
  </metadata>
  <g
     transform="matrix(0.31597147,0,0,0.31597147,-6.6742409,-5.254176)"
     id="layer1">
    <g
       transform="matrix(3.0940374,0,0,-2.5437627,-645.41769,1140.6977)"
       clip-path="url(#clipPath3462)"
       id="g3460"
       style="fill:#000000">
      <g
         transform="translate(359.9121,73.4443)"
         id="g3466"
         style="fill:#000000">
        <path
           d="m 0,0 c 0,0 3.433,-6.309 4.073,-10.302 0.639,-3.992 1.758,-7.346 2.875,-9.104 1.117,-1.756 1.756,-1.436 2.156,-3.594 0.4,-2.156 2.477,-3.832 4.072,-4.071 1.598,-0.241 2.797,0.477 2.877,-0.241 0.079,-0.718 1.837,-4.472 1.915,-0.239 0.64,1.756 1.838,1.837 2.636,0.239 0.799,-1.597 1.518,-3.035 1.917,-0.718 0.398,2.316 3.752,1.996 3.833,0.479 0.081,-1.517 2.157,-3.674 2.396,-0.479 0.239,3.194 2.555,4.391 3.354,1.917 0.798,-2.477 1.917,-3.755 2.157,0.479 1.037,0.717 1.677,0.717 1.677,0.717 0,0 1.118,-2.954 1.675,0 1.599,2.237 2.797,6.229 1.917,9.824 -0.878,3.594 -5.349,14.534 -6.946,19.645 -1.598,5.112 -3.914,14.694 -5.271,19.885 -1.358,5.191 -3.116,9.584 -3.594,11.98 -0.48,2.395 -0.321,5.35 0.239,9.343 0.56,3.994 1.597,2.315 -0.239,7.187 -1.837,4.871 -2.316,4.553 -2.156,7.907 0.159,3.353 0.319,4.871 -2.158,8.384 -2.474,3.514 -5.109,13.896 -6.467,17.49 -1.357,3.593 -2.556,5.75 -5.032,8.385 -2.475,2.636 -7.906,8.506 -9.344,11.499 -1.437,2.995 -4.311,5.87 -0.958,7.907 3.354,2.037 6.829,3.115 4.073,9.584 -2.755,6.467 -3.354,9.822 -2.155,12.217 1.197,2.397 3.473,4.673 1.197,10.541 -2.277,5.87 -3.594,5.75 -1.438,9.105 2.157,3.354 0,5.151 -1.437,10.541 -1.438,5.39 -3.834,10.781 -1.198,13.896 2.635,3.115 22.64,24.317 26.593,29.469 3.953,5.149 25.276,32.222 30.427,39.769 5.15,7.546 5.272,7.426 5.272,7.426 0,0 17.369,21.083 22.04,28.75 4.671,7.665 6.109,20.364 1.197,33.78 -4.91,13.418 -9.103,26.474 -14.853,33.781 -5.751,7.308 -9.584,8.145 -12.937,9.583 -3.354,1.437 -4.072,1.437 -5.511,2.397 -1.437,0.957 -4.312,1.436 -5.031,0 -3.714,1.436 -6.589,2.813 -8.624,2.395 1.316,-1.257 3.174,-2.216 3.354,-3.594 -3.535,1.318 -6.349,1.858 -5.51,0.239 -2.217,-0.418 -2.936,-0.359 -1.438,-1.198 1.497,-0.837 3.354,-2.575 3.834,-3.354 l 0,-0.957 c 0,0 -2.937,0.12 -3.355,-0.239 2.755,-1.379 2.875,-1.917 2.875,-1.917 0,0 -0.239,-2.577 -0.718,-3.115 -0.481,-0.538 0,-3.894 0.479,-5.511 0.479,-1.616 2.574,-3.593 4.072,-6.946 1.498,-3.356 0.161,-6.709 0.239,-10.542 0.081,-3.834 0,-5.431 1.437,-10.541 1.438,-5.112 1.599,-5.672 1.678,-9.105 0.08,-3.434 1.597,-6.789 -2.156,-7.907 -3.754,-1.117 -17.729,-2.875 -22.042,-7.186 -4.311,-4.313 -9.023,-5.432 -10.301,-6.709 -1.278,-1.278 -5.831,-0.879 -5.99,2.876 -0.159,3.753 -0.159,4.951 0.959,7.187 1.117,2.236 1.917,6.069 0.239,10.062 -1.677,3.993 -2.636,5.271 -2.636,5.271 1.438,0.479 6.23,1.756 7.428,10.78 1.037,8.147 0.239,9.105 -1.198,10.303 -1.438,1.198 -4.073,0.958 -5.031,0.24 -0.959,-0.719 -3.514,-0.959 -4.553,-1.917 -1.037,-0.958 -5.669,-3.834 -6.228,-3.115 -1.758,1.518 -14.774,5.99 -23.239,4.073 -1.197,2.874 -3.594,10.621 -8.865,10.78 -5.271,0.161 -7.586,-3.273 -8.864,-5.031 -1.278,-1.756 -3.514,-6.787 -3.354,-8.864 0.159,-2.075 2.476,-7.745 2.876,-8.385 -1.998,-2.954 -6.868,-8.147 -7.907,-12.458 -1.039,-4.312 -1.199,-9.982 -1.438,-11.98 -0.239,-1.995 -3.833,-7.347 -4.553,-9.103 -0.718,-1.757 -0.958,-6.309 -3.833,-5.99 -2.874,0.32 -8.543,3.355 -8.863,7.428 -0.32,4.071 2.076,18.846 3.114,24.437 1.038,5.589 4.632,14.773 5.031,19.406 0.4,4.631 -2.076,3.912 -0.719,6.467 1.358,2.557 4.074,5.751 4.074,5.751 -1.918,-0.061 -4.432,-2.096 -6.229,-2.875 -1.438,1.437 -2.396,2.396 -2.396,2.396 2.154,1.977 4.071,4.552 4.071,4.552 -1.917,0.538 -6.048,-2.575 -6.946,-3.594 -1.797,0.599 -2.396,1.677 -2.396,1.677 0,0 2.995,3.954 3.593,4.313 -1.676,0.059 -5.451,-2.037 -6.468,-4.073 -1.137,0.718 -1.917,1.437 -1.917,1.437 0,0 2.575,3.594 3.115,3.834 -2.276,0.059 -5.87,-2.636 -6.47,-3.594 -1.376,-0.181 -3.112,0.239 -3.112,0.239 l 3.832,3.834 c 0,0 -3.534,0.36 -6.709,-3.834 -4.611,-2.755 -6.768,-4.971 -7.666,-7.427 -0.899,-2.455 -1.677,-0.719 -2.635,-4.313 -0.959,-3.594 -1.557,-3.054 -1.917,-6.228 -0.359,-3.175 -3.354,-12.697 -5.51,-20.364 -2.156,-7.667 -3.712,-15.933 -3.833,-21.562 -0.12,-5.631 3.114,-13.298 4.072,-22.281 0.958,-8.984 -0.12,-9.584 2.396,-18.687 2.516,-9.105 4.433,-15.334 3.354,-20.604 -1.078,-5.271 -6.228,-18.568 -12.457,-28.75 -6.23,-10.182 -6.11,-16.53 -8.147,-21.801 -2.036,-5.271 -5.151,-47.197 -5.511,-58.217 -0.359,-11.022 -9.702,-48.395 -11.738,-58.458 -2.037,-10.062 1.797,-20.485 5.511,-27.071 3.714,-6.589 9.821,-12.22 10.78,-15.574 0.958,-3.353 -0.12,-4.072 -2.875,-9.103 -2.756,-5.032 -5.33,-7.428 -5.749,-11.261 -0.42,-3.834 -0.239,-9.343 -0.239,-9.343 0.477,0.538 1.197,1.438 1.197,1.438 l 0,-3.594 c 0,0 1.796,2.215 2.395,2.875 0.481,-0.12 0.481,-0.48 0.481,-0.48 0,0 0.237,-3.953 0.478,-4.073 1.317,1.379 2.395,3.355 2.395,3.355 l 1.917,0 c 0,0 -0.538,-2.456 0,-3.115 1.318,1.856 1.917,2.157 1.917,2.157 0,0 2.096,-0.36 2.396,-0.241 -0.12,-1.556 -0.3,-2.275 1.437,-0.478 1.138,0.119 3.115,0.239 3.115,0.239 0.299,-0.06 5.511,0.719 6.708,1.438 1.197,0.718 4.613,3.712 6.229,4.552 1.618,0.839 6.709,2.396 7.906,2.874 1.198,0.479 7.607,2.037 9.822,5.032 2.217,2.994 4.254,9.583 4.074,15.093 -0.179,5.51 0.119,15.153 -0.241,21.324 -0.359,6.169 0.54,8.264 -0.958,11.259 -1.498,2.995 1.139,6.768 2.636,9.342 1.496,2.577 5.33,6.111 7.188,7.908 1.856,1.796 5.391,5.091 5.988,3.353 0.6,-1.735 4.553,-3.234 7.188,-5.51 2.635,-2.275 12.459,-10.362 15.573,-13.895 3.114,-3.533 6.17,-6.469 8.625,-9.584 2.455,-3.114 6.709,-7.366 9.821,-11.259 3.115,-3.894 7.308,-7.787 9.584,-10.782 2.276,-2.995 9.024,-9.184 11.26,-11.499 C -4.712,6.07 0,0 0,0"
           id="path3468"
           style="fill:#000000;fill-opacity:1;fill-rule:evenodd;stroke:none" />
      </g>
    </g>
  </g>
</svg>
