<?xml version="1.0" encoding="utf-8"?>
<!-- Generator: Adobe Illustrator 19.1.0, SVG Export Plug-In . SVG Version: 6.00 Build 0)  -->
<svg version="1.1" id="Layer_1" xmlns="http://www.w3.org/2000/svg" xmlns:xlink="http://www.w3.org/1999/xlink" x="0px" y="0px"
	 viewBox="0 0 595.3 132.7" enable-background="new 0 0 595.3 132.7" xml:space="preserve">
<g>
	<path fill="#FFFFFF" d="M152.3,96.4c0-0.4,0.3-0.8,0.7-0.8h9c7.8,0,14.1,6.3,14.1,14.1c0,7.8-6.4,14.1-14.1,14.1h-9
		c-0.4,0-0.7-0.4-0.7-0.8V96.4z M161.4,121c6.6,0,11.4-4.7,11.4-11.4c0-6.6-4.8-11.3-11.4-11.3h-6V121H161.4z"/>
	<path fill="#FFFFFF" d="M187.3,96.4c0-0.4,0.3-0.8,0.8-0.8h15.9c0.4,0,0.8,0.4,0.8,0.8v1.2c0,0.4-0.3,0.8-0.8,0.8h-13.5v9.8h11.6
		c0.4,0,0.8,0.4,0.8,0.8v1.2c0,0.4-0.4,0.8-0.8,0.8h-11.6v10.3h13.5c0.4,0,0.8,0.4,0.8,0.8v1.2c0,0.4-0.3,0.8-0.8,0.8H188
		c-0.4,0-0.8-0.4-0.8-0.8V96.4z"/>
	<path fill="#FFFFFF" d="M212.1,96.7c-0.2-0.5,0.1-1,0.7-1h1.6c0.4,0,0.6,0.2,0.7,0.4l10,22.6h0.2l10-22.6c0.1-0.2,0.4-0.4,0.7-0.4
		h1.6c0.6,0,0.9,0.5,0.7,1L226,123.8c-0.1,0.2-0.4,0.4-0.7,0.4H225c-0.3,0-0.6-0.2-0.7-0.4L212.1,96.7z"/>
	<path fill="#FFFFFF" d="M247.5,96.4c0-0.4,0.3-0.8,0.8-0.8h15.9c0.4,0,0.8,0.4,0.8,0.8v1.2c0,0.4-0.3,0.8-0.8,0.8h-13.5v9.8h11.6
		c0.4,0,0.8,0.4,0.8,0.8v1.2c0,0.4-0.4,0.8-0.8,0.8h-11.6v10.3h13.5c0.4,0,0.8,0.4,0.8,0.8v1.2c0,0.4-0.3,0.8-0.8,0.8h-15.9
		c-0.4,0-0.8-0.4-0.8-0.8V96.4z"/>
	<path fill="#FFFFFF" d="M276.2,96.4c0-0.4,0.3-0.8,0.8-0.8h1.6c0.4,0,0.8,0.4,0.8,0.8v24.7h11.6c0.4,0,0.8,0.4,0.8,0.8v1.2
		c0,0.4-0.3,0.8-0.8,0.8H277c-0.4,0-0.8-0.4-0.8-0.8V96.4z"/>
	<path fill="#FFFFFF" d="M312.8,95.2c8.1,0,14.5,6.5,14.5,14.5c0,8.1-6.4,14.5-14.5,14.5c-8.1,0-14.5-6.4-14.5-14.5
		C298.4,101.7,304.8,95.2,312.8,95.2z M312.8,121.4c6.4,0,11.7-5.2,11.7-11.6c0-6.4-5.3-11.7-11.7-11.7s-11.6,5.3-11.6,11.7
		C301.2,116.1,306.4,121.4,312.8,121.4z"/>
	<path fill="#FFFFFF" d="M338.3,96.4c0-0.4,0.3-0.8,0.8-0.8h8.9c5,0,9,4,9,8.9c0,5-4.1,9.1-9,9.1h-6.6v9.5c0,0.4-0.4,0.8-0.8,0.8
		h-1.5c-0.4,0-0.8-0.4-0.8-0.8V96.4z M347.8,110.6c3.3,0,6.1-2.7,6.1-6.2c0-3.3-2.8-5.8-6.1-5.8h-6.4v11.9H347.8z"/>
	<path fill="#FFFFFF" d="M367.2,96.4c0-0.4,0.3-0.8,0.8-0.8h15.9c0.4,0,0.8,0.4,0.8,0.8v1.2c0,0.4-0.3,0.8-0.8,0.8h-13.5v9.8h11.6
		c0.4,0,0.8,0.4,0.8,0.8v1.2c0,0.4-0.4,0.8-0.8,0.8h-11.6v10.3h13.5c0.4,0,0.8,0.4,0.8,0.8v1.2c0,0.4-0.3,0.8-0.8,0.8h-15.9
		c-0.4,0-0.8-0.4-0.8-0.8V96.4z"/>
	<path fill="#FFFFFF" d="M395.9,96.4c0-0.4,0.3-0.8,0.8-0.8h10.4c4.8,0,8.8,3.8,8.8,8.6c0,3.7-2.5,6.8-6,8.2l5.5,10.2
		c0.3,0.5,0,1.2-0.7,1.2h-2.1c-0.4,0-0.6-0.2-0.6-0.4l-5.4-10.7H399V123c0,0.4-0.4,0.8-0.8,0.8h-1.6c-0.4,0-0.8-0.4-0.8-0.8V96.4z
		 M406.9,110.1c3.1,0,5.8-2.6,5.8-5.9c0-3.1-2.7-5.7-5.8-5.7H399v11.6H406.9z"/>
	<path fill="#FFFFFF" d="M425.5,119.6c0.2-0.2,0.4-0.5,0.6-0.8c0.4-0.5,0.8-0.8,1.4-0.4c0.3,0.2,3.2,3.1,6.8,3.1
		c3.3,0,5.4-2.1,5.4-4.4c0-2.8-2.4-4.4-7-6.4c-4.4-1.9-7.1-3.7-7.1-8.3c0-2.7,2.2-7.2,8.6-7.2c3.9,0,6.9,2.1,6.9,2.1
		c0.2,0.1,0.7,0.6,0.2,1.4c-0.2,0.2-0.3,0.5-0.5,0.8c-0.4,0.6-0.8,0.7-1.4,0.4c-0.3-0.2-2.8-1.9-5.3-1.9c-4.3,0-5.6,2.7-5.6,4.4
		c0,2.7,2.1,4.3,5.4,5.7c5.4,2.2,8.9,4.3,8.9,8.9c0,4.2-4,7.3-8.7,7.3c-4.8,0-8-2.8-8.5-3.3C425.4,120.7,425,120.3,425.5,119.6z"/>
</g>
<g>
	<g>
		<g>
			<path fill="#FFFFFF" d="M81.1,75.9l30.9-66.4c0.3-0.6,1-1.1,1.7-1.1h1c0.7,0,1.4,0.5,1.7,1.1l30.9,66.4c0.6,1.3-0.2,2.6-1.7,2.6
				h-10.9c-1.8,0-2.6-0.6-3.5-2.5l-3.5-7.8h-26.8l-3.5,7.9c-0.5,1.2-1.6,2.4-3.5,2.4H82.7C81.3,78.5,80.5,77.2,81.1,75.9z
				 M121.6,54.8l-7.5-16.3H114l-7.4,16.3H121.6z"/>
		</g>
		<g>
			<path fill="#FFFFFF" d="M168.9,10c0.1-0.9,1-1.6,1.8-1.6h1.6c0.5,0,1.4,0.4,1.7,1L196.8,52h0.2l22.9-42.6c0.3-0.6,1.2-1,1.7-1
				h1.6c0.8,0,1.7,0.7,1.8,1.6L236,76.3c0.2,1.3-0.7,2.2-1.9,2.2h-11.6c-0.9,0-1.8-0.8-1.9-1.6l-4.4-30.5H216l-16.6,31.9
				c-0.3,0.6-1.2,1.1-1.7,1.1H196c-0.6,0-1.4-0.5-1.7-1.1l-16.7-31.9h-0.2l-4.3,30.5c-0.1,0.8-0.9,1.6-1.9,1.6h-11.6
				c-1.2,0-2.1-0.9-1.9-2.2L168.9,10z"/>
		</g>
		<g>
			<path fill="#FFFFFF" d="M252.1,11.3c0-1,0.8-1.9,1.9-1.9h23.8c12.1,0,22.1,9.9,22.1,21.8c0,12.2-10,22.2-22,22.2h-10.4v23.2
				c0,1-0.9,1.9-1.9,1.9H254c-1.1,0-1.9-0.9-1.9-1.9V11.3z M276.9,39c4.2,0,7.8-3.4,7.8-7.8c0-4.1-3.5-7.3-7.8-7.3h-9.4V39H276.9z"
				/>
		</g>
		<g>
			<path fill="#FFFFFF" d="M316.1,11.3c0-1,0.9-1.9,1.9-1.9h12.1c1.1,0,1.9,0.9,1.9,1.9v39.9c0,6.9,5.1,12.4,12.1,12.4
				c7.1,0,12.3-5.5,12.3-12.4V11.3c0-1,0.8-1.9,1.9-1.9h12.1c1,0,1.9,0.9,1.9,1.9V52c0,15-12.6,27.4-28.2,27.4
				c-15.5,0-28-12.4-28-27.4V11.3z"/>
		</g>
		<g>
			<path fill="#FFFFFF" d="M388.1,11.3c0-1,0.8-1.9,1.8-1.9h24.1c19,0,34.6,15.5,34.6,34.4c0,19.1-15.6,34.6-34.6,34.6h-24.1
				c-1,0-1.8-0.9-1.8-1.9V11.3z M413,63.9c11.1,0,19.2-8.8,19.2-20c0-11.1-8.1-19.9-19.2-19.9h-9.5v39.9H413z"/>
		</g>
		<g>
			<path fill="#FFFFFF" d="M464.1,11.3c0-1,0.9-1.9,1.9-1.9h12.1c1.1,0,1.9,0.9,1.9,1.9v39.9c0,6.9,5.1,12.4,12.1,12.4
				c7.1,0,12.3-5.5,12.3-12.4V11.3c0-1,0.8-1.9,1.9-1.9h12.1c1,0,1.9,0.9,1.9,1.9V52c0,15-12.6,27.4-28.2,27.4
				c-15.5,0-28-12.4-28-27.4V11.3z"/>
		</g>
		<g>
			<path fill="#FFFFFF" d="M536.6,69.1l4.6-8.2c0.8-1.3,2.7-1.1,3.4-0.6c0.4,0.2,7.5,5.4,14,5.4c3.9,0,6.8-2.5,6.8-5.9
				c0-4.1-3.5-7.3-10.2-10c-8.5-3.4-19.1-10-19.1-21.8c0-9.8,7.6-19.6,22.8-19.6c10.3,0,18.1,5.2,21.1,7.4c1.2,0.7,1,2.5,0.6,3.2
				l-5,7.6c-0.7,1.1-2.5,2-3.4,1.3c-0.9-0.5-8.1-5.9-14.1-5.9c-3.5,0-6.2,2.4-6.2,5c0,3.6,3,6.4,10.7,9.6
				c7.7,3.1,19.9,9.1,19.9,22.5c0,10.2-8.8,20.4-23.3,20.4c-12.8,0-19.9-5.3-22.2-7.6C536.1,70.9,535.8,70.5,536.6,69.1z"/>
		</g>
	</g>
	<g>
		<g>
			<path fill="#FFFFFF" d="M40.3,61.7c-6.6-3.3-10.9-10.1-10.9-18c0-11,8.2-20.3,19.3-20.3c4.8,0,9.7,1.8,13.3,5
				c0.7,0.7,1.8,0.7,2.5,0l7.7-8c0.8-0.8,0.8-2-0.1-2.8c-6.7-6.1-14-9.2-23.9-9.2c-19.7,0-35.6,15.9-35.6,35.6
				c0,15.4,9.7,28.3,23.3,33.3L40.3,61.7z"/>
		</g>
		<g>
			<path fill="#FFFFFF" d="M64.7,59c-0.6-0.7-1.9-0.7-2.6-0.1c-3.4,2.9-8.1,4.6-12.6,4.7l-3.1,15.8c0.6,0,1.2,0,1.9,0
				c8.8,0,17.3-3.1,24-9.6c0.7-0.7,0.8-2,0.1-2.7L64.7,59z"/>
		</g>
	</g>
</g>
</svg>
