<?xml version="1.0" encoding="utf-8"?>
<!-- Generator: Adobe Illustrator 21.1.0, SVG Export Plug-In . SVG Version: 6.00 Build 0)  -->
<svg version="1.1" id="Ebene_1" xmlns="http://www.w3.org/2000/svg" xmlns:xlink="http://www.w3.org/1999/xlink" x="0px" y="0px"
	 viewBox="0 0 595.8 31" style="enable-background:new 0 0 595.8 31;" xml:space="preserve">
<style type="text/css">
	.st0{clip-path:url(#SVGID_2_);}
	.st1{fill:#FFFFFF;}
</style>
<title>CampudusDevelopers_white</title>
<g>
	<defs>
		<rect id="SVGID_1_" x="0" y="0" width="595.8" height="31"/>
	</defs>
	<clipPath id="SVGID_2_">
		<use xlink:href="#SVGID_1_"  style="overflow:visible;"/>
	</clipPath>
	<g class="st0">
		<path class="st1" d="M309.4,27.6c6.5,0.3,11.9-4.8,12.2-11.3c0-0.3,0-0.6,0-0.8c0-7.1-5.1-12.1-12.2-12.1h-6.5v24.2H309.4z
			 M299.6,1.3c0-0.4,0.3-0.8,0.8-0.8h9.7c8.3-0.2,15.3,6.4,15.5,14.7s-6.4,15.3-14.7,15.5c-0.3,0-0.5,0-0.8,0h-9.7
			c-0.4,0-0.8-0.4-0.8-0.8V1.3z"/>
		<path class="st1" d="M334.8,1.3c0-0.5,0.4-0.8,0.8-0.8l0,0h17c0.5,0,0.8,0.4,0.8,0.8c0,0,0,0,0,0v1.3c0,0.5-0.4,0.8-0.8,0.8l0,0
			h-14.5v10.5h12.4c0.4,0,0.8,0.4,0.8,0.8v1.2c0,0.5-0.4,0.8-0.8,0.8l0,0h-12.4v11h14.5c0.4,0,0.8,0.4,0.8,0.8c0,0,0,0,0,0v1.2
			c0,0.5-0.4,0.8-0.8,0.8l0,0h-17c-0.5,0-0.8-0.4-0.8-0.8c0,0,0,0,0,0L334.8,1.3z"/>
		<path class="st1" d="M359.7,1.5c-0.2-0.4-0.1-0.8,0.3-1c0.1-0.1,0.3-0.1,0.4-0.1h1.7c0.3,0,0.6,0.2,0.7,0.5L373.7,25h0.2
			l10.8-24.1c0.1-0.3,0.4-0.5,0.7-0.5h1.7c0.4,0,0.8,0.3,0.8,0.7c0,0.1,0,0.3-0.1,0.4l-13.1,29c-0.1,0.3-0.4,0.5-0.7,0.5h-0.4
			c-0.3,0-0.6-0.2-0.7-0.5L359.7,1.5z"/>
		<path class="st1" d="M395.7,1.3c0-0.5,0.4-0.8,0.8-0.8l0,0h17c0.5,0,0.8,0.4,0.8,0.8c0,0,0,0,0,0v1.3c0,0.5-0.4,0.8-0.8,0.8l0,0
			H399v10.5h12.4c0.4,0,0.8,0.4,0.8,0.8v1.2c0,0.5-0.4,0.8-0.8,0.8l0,0H399v11h14.5c0.4,0,0.8,0.4,0.8,0.8c0,0,0,0,0,0v1.2
			c0,0.5-0.4,0.8-0.8,0.8l0,0h-17c-0.5,0-0.8-0.4-0.8-0.8c0,0,0,0,0,0L395.7,1.3z"/>
		<path class="st1" d="M424.4,1.3c0-0.5,0.4-0.8,0.8-0.8l0,0h1.7c0.4,0,0.8,0.4,0.8,0.8v26.5h12.4c0.4,0,0.8,0.4,0.8,0.8
			c0,0,0,0,0,0v1.2c0,0.5-0.4,0.8-0.8,0.8l0,0h-14.9c-0.5,0-0.8-0.4-0.8-0.8c0,0,0,0,0,0V1.3z"/>
		<path class="st1" d="M461.7,28c6.9,0,12.5-5.6,12.5-12.5S468.7,3,461.8,3c-6.9,0-12.5,5.6-12.5,12.5c0,0,0,0,0,0
			C449.2,22.4,454.8,28,461.7,28 M461.7,0c8.6,0,15.5,6.9,15.6,15.5s-6.9,15.5-15.5,15.6s-15.5-6.9-15.6-15.5c0,0,0,0,0-0.1
			C446.2,7,453.1,0,461.7,0C461.7,0,461.7,0,461.7,0"/>
		<path class="st1" d="M497.2,16.5c3.6,0,6.6-3,6.5-6.6c-0.1-3.5-3-6.3-6.5-6.2c0,0,0,0,0,0h-6.9v12.8H497.2z M487,1.3
			c0-0.5,0.4-0.8,0.8-0.8l0,0h9.5c5.3,0,9.6,4.3,9.6,9.6s-4.3,9.6-9.6,9.6h-7.1v10.1c0,0.4-0.4,0.8-0.8,0.8h-1.6
			c-0.5,0-0.8-0.4-0.8-0.8c0,0,0,0,0,0L487,1.3z"/>
		<path class="st1" d="M517.3,1.3c0-0.5,0.4-0.8,0.8-0.8l0,0h17c0.5,0,0.8,0.4,0.8,0.8c0,0,0,0,0,0v1.3c0,0.5-0.4,0.8-0.8,0.8l0,0
			h-14.5v10.5H533c0.4,0,0.8,0.4,0.8,0.8v1.2c0,0.5-0.4,0.8-0.8,0.8l0,0h-12.4v11h14.5c0.4,0,0.8,0.3,0.8,0.8c0,0,0,0,0,0v1.2
			c0,0.5-0.4,0.8-0.8,0.8l0,0h-17c-0.5,0-0.8-0.4-0.8-0.8c0,0,0,0,0,0L517.3,1.3z"/>
		<path class="st1" d="M558.4,16c3.4,0,6.2-2.8,6.2-6.3c-0.1-3.4-2.8-6.1-6.2-6.1h-8.4V16H558.4z M546.7,1.3c0-0.5,0.4-0.8,0.8-0.8
			l0,0h11.2c5.1-0.1,9.3,4,9.4,9.1c0,0,0,0,0,0c-0.1,4-2.7,7.5-6.4,8.8l5.9,11c0.2,0.4,0.1,0.9-0.3,1.1c-0.1,0.1-0.3,0.1-0.5,0.1
			h-2.2c-0.3,0-0.6-0.1-0.7-0.4l-5.7-11.4H550v11c0,0.4-0.4,0.8-0.8,0.8h-1.7c-0.5,0-0.8-0.4-0.8-0.8c0,0,0,0,0,0L546.7,1.3z"/>
		<path class="st1" d="M577.1,26.1c0.2-0.3,0.4-0.6,0.7-0.8c0.4-0.6,0.9-0.9,1.5-0.4c0.3,0.3,3.5,3.3,7.3,3.3c3.5,0,5.8-2.2,5.8-4.7
			c0-3-2.6-4.7-7.5-6.8c-4.7-2.1-7.6-4-7.6-8.9c0-2.9,2.3-7.7,9.2-7.7c2.6,0,5.2,0.8,7.4,2.2c0.5,0.3,0.6,0.9,0.3,1.4
			c0,0,0,0.1-0.1,0.1c-0.2,0.3-0.3,0.6-0.5,0.8c-0.2,0.5-0.8,0.7-1.3,0.5c-0.1,0-0.1-0.1-0.2-0.1c-0.3-0.2-3-2-5.7-2
			c-4.6,0-5.9,2.9-5.9,4.7c0,2.9,2.2,4.6,5.8,6.1c5.8,2.4,9.6,4.6,9.6,9.6c0,4.5-4.3,7.8-9.3,7.8c-3.4,0-6.6-1.3-9.1-3.5
			C576.9,27.2,576.8,26.6,577.1,26.1C577.1,26.1,577.1,26.1,577.1,26.1"/>
		<path class="st1" d="M49.2,20L46,13l0,0l-3.2,7H49.2z M31.8,29.1L45.1,0.5c0.1-0.3,0.4-0.5,0.7-0.5h0.4c0.3,0,0.6,0.2,0.7,0.5
			l13.3,28.6c0.2,0.4,0.1,0.8-0.3,1c-0.1,0.1-0.3,0.1-0.4,0.1h-4.7c-0.8,0-1.1-0.2-1.5-1.1l-1.5-3.4H40.2l-1.5,3.4
			c-0.2,0.6-0.9,1-1.5,1h-4.7c-0.4,0-0.8-0.3-0.8-0.7C31.7,29.3,31.7,29.2,31.8,29.1"/>
		<path class="st1" d="M71.5,0.8c0.1-0.4,0.4-0.7,0.8-0.7h0.7c0.3,0,0.6,0.2,0.7,0.4l9.9,18.3h0.1l9.8-18.3c0.2-0.2,0.4-0.4,0.7-0.4
			h0.7c0.4,0,0.7,0.3,0.8,0.7l4.8,28.5c0.1,0.4-0.2,0.8-0.6,0.9c-0.1,0-0.1,0-0.2,0h-5c-0.4,0-0.7-0.3-0.8-0.7l-1.9-13.1h-0.1
			l-7.1,13.7c-0.2,0.3-0.4,0.4-0.7,0.5h-0.8c-0.3,0-0.6-0.2-0.7-0.5l-7.2-13.7h-0.1l-1.9,13.1c-0.1,0.4-0.4,0.7-0.8,0.7h-5
			c-0.4,0-0.8-0.3-0.8-0.7c0-0.1,0-0.1,0-0.2L71.5,0.8z"/>
		<path class="st1" d="M120.7,13.2c1.8,0,3.3-1.5,3.3-3.3c0,0,0,0,0,0c0-1.8-1.5-3.2-3.3-3.1c0,0,0,0,0,0h-4v6.5H120.7z M110,1.3
			c0-0.4,0.4-0.8,0.8-0.8h10.2c5.2-0.2,9.6,3.9,9.8,9.1c0.2,5.2-3.9,9.6-9.1,9.8c-0.2,0-0.4,0-0.6,0h-4.4v10c0,0.4-0.4,0.8-0.8,0.8
			h-5c-0.4,0-0.8-0.4-0.8-0.8L110,1.3z"/>
		<path class="st1" d="M138.8,1.3c0-0.4,0.4-0.8,0.8-0.8h5.2c0.4,0,0.8,0.4,0.8,0.8v17.2c0,2.9,2.4,5.3,5.3,5.3
			c2.9,0,5.3-2.4,5.3-5.3V1.3c0-0.4,0.3-0.8,0.8-0.8c0,0,0,0,0,0h5.2c0.4,0,0.8,0.4,0.8,0.8v17.5c-0.2,6.7-5.8,11.9-12.4,11.7
			c-6.4-0.2-11.6-5.3-11.7-11.7L138.8,1.3z"/>
		<path class="st1" d="M184.7,23.9c4.6,0,8.3-3.7,8.3-8.2c0-0.1,0-0.3,0-0.4c0.2-4.5-3.4-8.4-7.9-8.6c-0.1,0-0.2,0-0.4,0h-4.1v17.2
			H184.7z M174,1.3c0-0.4,0.3-0.8,0.8-0.8h10.4c8.2,0,14.8,6.6,14.8,14.8s-6.6,14.8-14.8,14.8h-10.3c-0.4,0-0.8-0.4-0.8-0.8L174,1.3
			z"/>
		<path class="st1" d="M209,1.3c0-0.4,0.4-0.8,0.8-0.8h5.2c0.4,0,0.8,0.4,0.8,0.8v17.2c0,2.9,2.4,5.3,5.3,5.3c2.9,0,5.3-2.4,5.3-5.3
			V1.3c0-0.4,0.3-0.8,0.8-0.8c0,0,0,0,0,0h5.2c0.4,0,0.8,0.4,0.8,0.8v17.5c-0.2,6.7-5.8,11.9-12.4,11.7c-6.4-0.2-11.6-5.3-11.7-11.7
			L209,1.3z"/>
		<path class="st1" d="M242.6,26.1l2-3.5c0.3-0.4,1-0.6,1.4-0.3c0.2,0.1,3.2,2.3,6,2.3c1.5,0.2,2.8-0.9,2.9-2.4c0-0.1,0-0.1,0-0.2
			c0-1.8-1.5-3.1-4.4-4.3c-3.6-1.4-8.2-4.3-8.2-9.4c0-4.2,3.3-8.4,9.8-8.4c3.3,0.1,6.5,1.2,9.1,3.2c0.4,0.3,0.5,0.9,0.3,1.4
			l-2.2,3.3c-0.3,0.5-1.1,0.9-1.4,0.6s-3.5-2.6-6.1-2.6c-1.3-0.1-2.5,0.8-2.7,2.2c0,1.6,1.3,2.8,4.6,4.1s8.6,3.9,8.6,9.7
			c0,4.4-3.8,8.8-10,8.8c-5.5,0-8.6-2.3-9.5-3.3C242.3,26.9,242.2,26.7,242.6,26.1"/>
		<path class="st1" d="M11.9,23c-2.9-1.5-4.7-4.5-4.7-7.8c-0.1-4.7,3.5-8.6,8.2-8.7c0,0,0.1,0,0.1,0c2.1,0,4.1,0.8,5.7,2.2
			C21.5,9,22,9,22.3,8.7l3.3-3.4C25.9,5,26,4.5,25.7,4.1c0,0,0-0.1-0.1-0.1c-2.8-2.7-6.5-4.1-10.3-4C6.9,0.1,0,6.9,0,15.3
			c0,6.4,4,12.2,10,14.4L11.9,23z"/>
		<path class="st1" d="M22.4,21.8c-0.3-0.3-0.8-0.3-1.1,0c-1.5,1.2-3.4,1.9-5.4,2l-1.3,6.8h0.8c3.8,0,7.5-1.4,10.3-4.1
			c0.3-0.3,0.3-0.8,0-1.1L22.4,21.8z"/>
	</g>
</g>
</svg>
